<?xml version="1.0" standalone="no"?>
<!DOCTYPE svg PUBLIC "-//W3C//DTD SVG 20010904//EN" "http://www.w3.org/TR/2001/REC-SVG-20010904/DTD/svg10.dtd">
<!-- Created using Krita: https://krita.org -->
<svg xmlns="http://www.w3.org/2000/svg" 
    xmlns:xlink="http://www.w3.org/1999/xlink"
    xmlns:krita="http://krita.org/namespaces/svg/krita"
    xmlns:sodipodi="http://sodipodi.sourceforge.net/DTD/sodipodi-0.dtd"
    width="240pt"
    height="240pt"
    viewBox="0 0 240 240">
<defs/>
<path id="shape0" transform="translate(22.2712562740798, 115.665001955629)" fill="none" stroke="#000000" stroke-width="3.84" stroke-linecap="round" stroke-linejoin="miter" stroke-miterlimit="1.91999995708466" d="M24.4877 90.0394L0 0" sodipodi:nodetypes="cc"/><path id="shape01" transform="translate(23.024889179622, 111.390001883349)" fill="none" stroke="#000000" stroke-width="3.84" stroke-linecap="round" stroke-linejoin="miter" stroke-miterlimit="1.91999995708466" d="M0 3.60677L4.30887 0" sodipodi:nodetypes="cc"/><path id="shape02" transform="matrix(0.96933759004357 0 0 1 47.426938527298 205.874140165528)" fill="none" stroke="#000000" stroke-width="3.84" stroke-linecap="round" stroke-linejoin="miter" stroke-miterlimit="1.91999995708466" d="M0 0C23.3852 4.35174 44.6774 11.6746 66.9332 21.6799" sodipodi:nodetypes="cc"/><path id="shape03" transform="translate(28.1587485808685, 111.480005985537)" fill="none" stroke="#000000" stroke-width="3.84" stroke-linecap="round" stroke-linejoin="miter" stroke-miterlimit="1.91999995708466" d="M91.8525 21.96C61.4539 12.2736 28.3987 4.40643 0 0" sodipodi:nodetypes="cc"/><path id="shape04" transform="translate(37.1100014255344, 108.877137646566)" fill="none" stroke="#000000" stroke-width="3.84" stroke-linecap="square" stroke-linejoin="miter" stroke-miterlimit="2" d="M82.89 21.2929C83.328 4.49645 30.5066 -5.43001 0 3.14285" sodipodi:nodetypes="cc"/><path id="shape05" transform="matrix(0.658534065495222 -0.148641280511839 0 0.755405884987268 173.278388966495 153.163987303533)" fill="none" stroke="#000000" stroke-width="3.84" stroke-linecap="round" stroke-linejoin="round" d="M15.5917 0.000823498C14.119 -0.0418586 13.0675 1.58412 12.4397 2.66791L0 49.1094C0.17708 52.2202 1.47011 52.399 2.33345 52.6096C3.55992 51.9257 4.1865 53.1709 5.51543 49.5337L8.48528 38.5028L15.5822 38.5029" sodipodi:nodetypes="ccccccc"/><path id="shape1" transform="matrix(0.658534065495222 -0.148641280511839 0 0.755405884987268 180.121983681523 159.130215744256)" fill="none" stroke="#000000" stroke-width="3.84" stroke-linecap="round" stroke-linejoin="round" d="M5.52001 0L0 22.2L6.16126 22.2075" sodipodi:nodetypes="ccc"/><path id="shape01" transform="matrix(-0.658534065495222 0.148641280511839 0 0.755405884987268 194.414397910977 148.393264574019)" fill="none" stroke="#000000" stroke-width="3.84" stroke-linecap="round" stroke-linejoin="round" d="M15.5917 0.000823498C14.119 -0.0418586 13.0675 1.58412 12.4397 2.66791L0 49.1094C0.17708 52.2202 1.47011 52.399 2.33345 52.6096C3.55992 51.9257 4.1865 53.1709 5.51543 49.5337L8.48528 38.5028L15.5822 38.5029" sodipodi:nodetypes="ccccccc"/><path id="shape11" transform="matrix(-0.658534065495222 0.148641280511839 0 0.755405884987268 187.57080319595 157.335591574905)" fill="none" stroke="#000000" stroke-width="3.84" stroke-linecap="round" stroke-linejoin="round" d="M5.64121 0L0 22.35L6.16126 22.3575" sodipodi:nodetypes="ccc"/><path id="shape02" transform="matrix(-0.658534065495222 0.148641280511839 0 0.755405884987268 170.047608481509 154.317955790687)" fill="none" stroke="#000000" stroke-width="3.84" stroke-linecap="round" stroke-linejoin="bevel" d="M6.2435 38.3906L5.95961 5.70707C6.14814 0.315352 3.28065 0.0744879 2.94932 0C1.32519 0.418811 -0.13276 1.21127 0.0168158 5.70707L0.0168158 45.0045C-0.359783 54.4732 5.703 52.6025 6.78931 50.2632" sodipodi:nodetypes="cccccc"/><path id="shape03" transform="matrix(0.658534065495222 -0.148641280511839 0 -0.755405884987268 150.081996681253 197.925293036665)" fill="none" stroke="#000000" stroke-width="3.84" stroke-linecap="round" stroke-linejoin="bevel" d="M6.25813 36.0806L5.97424 5.70707C6.16277 0.315352 3.29528 0.0744879 2.96395 0C1.33982 0.418811 -0.118131 1.21127 0.0314455 5.70707L0.0314455 45.0045C-0.450912 51.8061 4.74751 51.9823 6.60768 49.5862" sodipodi:nodetypes="cccccc"/><path id="shape12" transform="matrix(0.658534065495222 -0.148641280511839 0 0.755405884987268 154.223828318193 169.756367006578)" fill="none" stroke="#000000" stroke-width="3.84" stroke-linecap="round" stroke-linejoin="miter" stroke-miterlimit="1.91999995708466" d="M0 0L17.3295 34.7041" sodipodi:nodetypes="cc"/><path id="shape2" transform="matrix(0.658534065495222 -0.148641280511839 0 0.755405884987268 154.601013210471 159.727983091868)" fill="none" stroke="#000000" stroke-width="3.84" stroke-linecap="round" stroke-linejoin="miter" stroke-miterlimit="1.91999995708466" d="M0 0L16.9281 35.5003" sodipodi:nodetypes="cc"/><path id="shape04" transform="matrix(0.658534065495222 -0.148641280511839 0 0.755405884987268 126.190947566402 164.217079585436)" fill="none" stroke="#000000" stroke-width="3.84" stroke-linecap="round" stroke-linejoin="bevel" d="M14.0475 45.2591C9.79887 45.3095 6.30082 43.8219 6.23039 32.0008L5.95338 5.70707C6.14191 0.315352 3.27442 0.0744879 2.94309 0C1.31897 0.418811 -0.138988 1.21127 0.0105881 5.70707L0.0105881 36.1374C0.896787 49.0851 7.47916 51.504 14.3391 51.5753" sodipodi:nodetypes="ccccccc"/><path id="shape05" transform="matrix(-0.658534065495222 0.148641280511839 0 0.755405884987268 144.459457074834 160.093595640327)" fill="none" stroke="#000000" stroke-width="3.84" stroke-linecap="round" stroke-linejoin="bevel" d="M13.2164 45.2591C8.74972 45.4346 6.03509 41.7591 6.23728 32.4251L5.95338 5.70707C6.14191 0.315352 3.27442 0.0744879 2.94309 0C1.31897 0.418811 -0.138988 1.21127 0.0105881 5.70707L0.0105881 36.1374C0.596787 48.1851 6.86059 51.4443 13.5706 51.5532" sodipodi:nodetypes="ccccccc"/><path id="shape06" transform="matrix(0.675671208434785 0.163281418819173 0 0.75045371901719 92.1244122437482 161.42232997704)" fill="none" stroke="#000000" stroke-width="4.08" stroke-linecap="round" stroke-linejoin="round" d="M34.0258 40.95C16.7911 62.9677 -15.525 34.5633 8.6758 0C3.81607 29.9105 12.2661 43.5605 34.0258 40.95" sodipodi:nodetypes="ccc"/><ellipse id="shape011" transform="matrix(0.675671208434785 0.163281418819173 0 0.675672962092925 66.0811887420627 155.212462022068)" rx="16.32" ry="27.84" cx="16.32" cy="27.84" fill="none" stroke="#000000" stroke-width="4.08" stroke-linecap="square" stroke-linejoin="bevel"/><path id="shape11" transform="matrix(0.675671208434785 0.163281418819173 0 0.730617819933455 77.2699207479022 143.103842772541)" fill="none" stroke="#000000" stroke-width="4.08" stroke-linecap="round" stroke-linejoin="miter" stroke-miterlimit="1.91999995708466" d="M0 11.9252L0 0" sodipodi:nodetypes="cc"/><path id="shape21" transform="matrix(0.675671208434785 0.163281418819173 0 0.730617819933455 63.9423052741275 149.746630111553)" fill="none" stroke="#000000" stroke-width="4.08" stroke-linecap="round" stroke-linejoin="miter" stroke-miterlimit="1.91999995708466" d="M5.4 5.4L0 0" sodipodi:nodetypes="cc"/><path id="shape3" transform="matrix(0.674875690391526 0.127645830655752 0.0327778038661097 0.737678630876699 65.9409048969149 137.308602872728)" fill="none" stroke="#000000" stroke-width="4.08" stroke-linecap="round" stroke-linejoin="miter" stroke-miterlimit="1.91999995708466" d="M8.25 18.675L0 0" sodipodi:nodetypes="cc"/><path id="shape4" transform="matrix(-0.675671208434785 -0.163281418819173 0 0.730617819933455 90.3587430219218 156.130376202496)" fill="none" stroke="#000000" stroke-width="4.08" stroke-linecap="round" stroke-linejoin="miter" stroke-miterlimit="1.91999995708466" d="M5.4 5.4L0 0" sodipodi:nodetypes="cc"/><path id="shape5" transform="matrix(-0.674875690391526 -0.198532520228747 -0.0327778038661097 0.721836587426504 88.3601433991344 142.726393398341)" fill="none" stroke="#000000" stroke-width="4.08" stroke-linecap="round" stroke-linejoin="miter" stroke-miterlimit="1.91999995708466" d="M8.25 18.675L0 0" sodipodi:nodetypes="cc"/><path id="shape011" transform="matrix(0.715750652593997 0.172966941046707 0 0.789752230606173 44.1722613006068 149.619964881375)" fill="none" stroke="#000000" stroke-width="4.08" stroke-linecap="round" stroke-linejoin="bevel" d="M8.83643 25.8762C-3.09064 21.958 -2.71515 4.20411 8.58143 0.6312C11.0815 -0.299401 13.5815 -0.0462562 16.0815 0.4062C20.2615 1.4548 25.3397 6.22381 24.7065 14.3562C24.406 16.081 23.5057 16.0808 22.5315 16.7562C21.6065 16.2476 20.2116 15.8929 19.7419 13.7119C18.2221 9.36336 16.7243 6.50541 12.611 6.19837C5.61808 5.94185 3.10343 18.3415 12.7065 21.0762C19.5678 22.0673 24.7316 27.9148 25.1015 31.0094" sodipodi:nodetypes="ccccccccc"/><path id="shape021" transform="matrix(-0.715750652593997 -0.172966941046707 0 -0.789752230606173 62.4728237608787 191.99272004076)" fill="none" stroke="#000000" stroke-width="4.08" stroke-linecap="square" stroke-linejoin="bevel" d="M8.6216 25.727C-3.26396 21.4849 -2.45619 5.1913 8.55693 0.6312C11.0569 -0.299401 13.5569 -0.0462562 16.0569 0.4062C19.8864 1.3861 24.9985 6.16175 24.6819 14.3562C24.3814 16.081 23.4811 16.0808 22.5069 16.7562C21.5819 16.2476 19.9464 15.7973 19.4768 13.6164C18.1694 8.57396 16.6997 6.50541 12.5864 6.19837C5.16877 5.24801 3.07892 18.3415 12.6819 21.0762C19.5433 22.0673 24.0822 26.7055 24.8769 30.4245" sodipodi:nodetypes="ccccccccc"/><path id="shape07" transform="matrix(0.655196755325409 -0.148876877348054 0 0.756603205381364 172.240286824745 153.94748282229)" fill="none" stroke="#000000" stroke-width="3.84" stroke-linecap="round" stroke-linejoin="round" d="M15.9826 0.000399024C14.5099 -0.0422831 12.9061 3.35114 12.2783 4.43493L0 50.283C0.17708 53.3938 1.47011 53.5726 2.33345 53.7832C3.55992 53.0993 5.15725 53.8989 6.48618 50.2617C7.47613 46.5847 8.46608 42.9078 9.45603 39.2308L15.5822 39.6765" sodipodi:nodetypes="ccccccc"/><path id="shape012" transform="matrix(-0.655196755325409 0.148876877348054 0 0.756603205381364 189.915013321074 179.950642667021)" fill="none" stroke="#000000" stroke-width="3.84" stroke-linecap="round" stroke-linejoin="round" d="M0 12.2381L3.36595 0L10.4629 0.0001" sodipodi:nodetypes="ccc"/><path id="shape111" transform="matrix(-0.655196755325409 0.148876877348054 0 0.756603205381364 186.541005446831 161.482290100552)" fill="none" stroke="#000000" stroke-width="3.84" stroke-linecap="round" stroke-linejoin="round" d="M4.93747 0L0 16.8828" sodipodi:nodetypes="cc"/><path id="shape022" transform="matrix(-0.655196755325409 0.148876877348054 0 0.756603205381364 164.935158262472 180.969843330687)" fill="none" stroke="#000000" stroke-width="3.84" stroke-linecap="round" stroke-linejoin="bevel" d="M0 0" sodipodi:nodetypes="c"/><path id="shape031" transform="matrix(0.655196755325409 -0.148876877348054 0 -0.756603205381364 149.138039121846 198.485730208465)" fill="none" stroke="#000000" stroke-width="3.84" stroke-linecap="round" stroke-linejoin="bevel" d="M5.757 0.57975C4.78881 0.0250555 0.418306 -1.39189 0.067175 4.13785L0.067175 43.4353C-0.415182 50.2369 1.85928 48.4995 1.8307 49.3002" sodipodi:nodetypes="cccc"/><path id="shape121" transform="matrix(0.655196755325409 -0.148876877348054 0 0.756603205381364 154.63634843465 174.075546340269)" fill="none" stroke="#000000" stroke-width="3.84" stroke-linecap="round" stroke-linejoin="miter" stroke-miterlimit="1.91999995708466" d="M0 0L15.3025 31.1129" sodipodi:nodetypes="cc"/><path id="shape041" transform="matrix(0.65519675532541 -0.148876877348054 0 0.756603205381365 125.350522159447 167.026664853769)" fill="none" stroke="#000000" stroke-width="3.84" stroke-linecap="round" stroke-linejoin="bevel" d="M1.47205 0C-0.152065 0.418811 -0.0764841 -0.257549 0.073092 4.23825L0.073092 34.6686C0.481647 40.6377 2.97861 46.068 7.90148 47.7825C16.3747 51.6948 23.4202 46.4218 24.6578 44.7336" sodipodi:nodetypes="ccccc"/><path id="shape051" transform="matrix(-0.655196755325409 0.148876877348054 0 0.756603205381364 139.666767929514 163.815011465377)" fill="none" stroke="#000000" stroke-width="3.84" stroke-linecap="round" stroke-linejoin="bevel" d="M0.2839 38.1503L0 0" sodipodi:nodetypes="cc"/><path id="shape013" transform="matrix(1 0 0 1.01049350807723 165.073251103851 158.833867987819)" fill="none" stroke="#000000" stroke-width="3.12" stroke-linecap="round" stroke-linejoin="miter" stroke-miterlimit="1.91999995708466" d="M0 0L0 19.2046" sodipodi:nodetypes="cc"/><path id="shape12" transform="matrix(1.02340763934999 0.00480515157848133 -0.00448740062573634 0.955732614506612 190.545555093224 188.117689584422)" fill="none" stroke="#000000" stroke-width="2.64" stroke-linecap="round" stroke-linejoin="miter" stroke-miterlimit="1.91999995708466" d="M0 1.50078C1.53164 1.80358 2.37409 1.01059 3.07969 0" sodipodi:nodetypes="cc"/><path id="shape22" transform="translate(179.063354505985, 180.694068264178)" fill="none" stroke="#000000" stroke-width="2.64" stroke-linecap="square" stroke-linejoin="miter" stroke-miterlimit="2" d="M9.06864 0L0 2.22739" sodipodi:nodetypes="cc"/><path id="shape31" transform="matrix(1.32949856824123 -0.146195625399106 0.119146162606702 1.08351157679726 164.972755911448 155.43062856321)" fill="none" stroke="#000000" stroke-width="2.64" stroke-linecap="round" stroke-linejoin="miter" stroke-miterlimit="1.91999995708466" d="M2.05329 0.0411189C1.42004 -0.2367 0.39826 0.918831 0 2.73468" sodipodi:nodetypes="cc"/><path id="shape112" transform="matrix(0.999999984002641 0 0 0.999999984002641 164.867706977896 194.071901534842)" fill="none" stroke="#000000" stroke-width="2.64" stroke-linecap="round" stroke-linejoin="miter" stroke-miterlimit="1.91999995708466" d="M0 1.50078L3.07969 0" sodipodi:nodetypes="cc"/><path id="shape122" transform="matrix(0.949367431628209 -0.314167865589328 0.314167865589328 0.949367431628209 149.436418580924 160.260276042173)" fill="none" stroke="#000000" stroke-width="2.64" stroke-linecap="round" stroke-linejoin="miter" stroke-miterlimit="1.91999995708466" d="M0 1.14778L1.64898 0" sodipodi:nodetypes="cc"/><path id="shape13" transform="matrix(0.903313145637299 -0.428981623653948 0.428981623653948 0.903313145637299 139.471071974645 162.492424191269)" fill="none" stroke="#000000" stroke-width="2.64" stroke-linecap="round" stroke-linejoin="miter" stroke-miterlimit="1.91999995708466" d="M0 0.874376L2.07451 0" sodipodi:nodetypes="cc"/><path id="shape14" transform="matrix(0.903313153388484 -0.42898162733497 0.42898162733497 0.903313153388484 125.132620597436 165.660163345055)" fill="none" stroke="#000000" stroke-width="2.64" stroke-linecap="round" stroke-linejoin="miter" stroke-miterlimit="1.91999995708466" d="M0 1.3199L1.91843 0" sodipodi:nodetypes="cc"/><path id="shape08" transform="matrix(0.654526121092186 0.163540220314653 0 0.751643190214678 91.7404251710841 162.745519996562)" fill="none" stroke="#000000" stroke-width="4.08" stroke-linecap="round" stroke-linejoin="round" d="M36.2353 40.95C18.555 63.8073 -18.3226 25.7644 10.8853 0C11.2156 17.2388 6.05936 36.6417 36.2353 40.95" sodipodi:nodetypes="ccc"/><path id="shape014" transform="matrix(0.654526121092185 0.163540220314653 0 0.676743905586127 66.2202913442573 155.219318538992)" fill="none" stroke="#000000" stroke-width="4.08" stroke-linecap="square" stroke-linejoin="bevel" d="M35.2955 29.6628C35.2955 14.2872 25.3429 0 16.3296 0C7.31635 0 0.00964165 12.4644 0.00964165 27.84C-0.355593 43.6571 9.72194 57.7933 18.9755 57.5028C27.9888 57.5028 35.2955 45.0384 35.2955 29.6628Z" sodipodi:nodetypes="ccccc"/><path id="shape13" transform="matrix(0.654526121092185 0.163540220314653 0 0.731775851176634 77.8515042341687 143.363069280347)" fill="none" stroke="#000000" stroke-width="4.08" stroke-linecap="round" stroke-linejoin="miter" stroke-miterlimit="1.91999995708466" d="M0 11.9252L0 0" sodipodi:nodetypes="cc"/><path id="shape23" transform="matrix(0.654526121092185 0.163540220314653 0 0.731775851176634 65.4622067122499 150.352000994377)" fill="none" stroke="#000000" stroke-width="4.08" stroke-linecap="round" stroke-linejoin="miter" stroke-miterlimit="1.91999995708466" d="M5.4 5.4L0 0" sodipodi:nodetypes="cc"/><path id="shape32" transform="matrix(0.653755498735316 0.127848149646513 0.0317520245861948 0.738847853524538 67.0800622225833 137.735160415943)" fill="none" stroke="#000000" stroke-width="4.08" stroke-linecap="round" stroke-linejoin="miter" stroke-miterlimit="1.91999995708466" d="M8.25 18.675L0 0" sodipodi:nodetypes="cc"/><path id="shape41" transform="matrix(-0.654526121092185 -0.163540220314653 0 0.731775851176634 90.7364107083601 156.445865331052)" fill="none" stroke="#000000" stroke-width="4.08" stroke-linecap="round" stroke-linejoin="miter" stroke-miterlimit="1.91999995708466" d="M5.4 5.4L0 0" sodipodi:nodetypes="cc"/><path id="shape51" transform="matrix(-0.653755498735316 -0.198847194816389 -0.0317520245861948 0.722980700392139 88.8533901518175 142.983137187016)" fill="none" stroke="#000000" stroke-width="4.08" stroke-linecap="round" stroke-linejoin="miter" stroke-miterlimit="1.91999995708466" d="M8.25 18.675L0 0" sodipodi:nodetypes="cc"/><path id="shape0111" transform="matrix(0.693351281604545 0.173241094121412 0 0.791003990052029 50.757894185047 151.001119016494)" fill="none" stroke="#000000" stroke-width="4.08" stroke-linecap="round" stroke-linejoin="bevel" d="M0 0.683572C2.50007 -0.247029 6.60971 -0.0946137 9.10971 0.357843C13.2897 1.40644 19.5378 7.8544 18.9046 15.9868C18.6041 17.7116 17.7038 17.7114 16.7296 18.3868C15.7709 18.2995 12.0459 18.2664 11.6422 15.2616C10.1224 10.9131 9.19166 9.55804 6.80908 7.82896C-0.18384 7.57244 -2.10383 19.1612 7.49924 21.8959C12.6839 23.8705 18.9297 29.5454 19.2996 32.64" sodipodi:nodetypes="cccccccc"/><path id="shape023" transform="matrix(-0.693351281604545 -0.173241094121412 0 -0.791003990052029 64.4629766119788 193.725711298713)" fill="none" stroke="#000000" stroke-width="4.08" stroke-linecap="square" stroke-linejoin="bevel" d="M8.6216 25.727C-3.26396 21.4849 -2.45619 5.1913 8.55693 0.6312C11.0569 -0.299401 13.5569 -0.0462562 16.0569 0.4062C19.643 1.23612 30.0625 5.33766 27.79 17.0929C27.4895 18.8177 24.2667 19.2396 23.7515 18.6747C22.1834 16.9788 22.1291 16.9199 21.6557 14.7355C20.3483 9.6931 17.9978 6.98279 15.4143 7.8157C9.15677 8.15798 5.99565 19.3607 15.1878 22.0948" sodipodi:nodetypes="cccccccc"/><path id="shape113" transform="matrix(0.00552674646036131 0.771352421239815 -0.99997417226642 0.00716482319215778 72.8838089364407 151.636347972998)" fill="none" stroke="#000000" stroke-width="2.64" stroke-linecap="round" stroke-linejoin="miter" stroke-miterlimit="1.91999995708466" d="M0 1.02139L1.88325 0" sodipodi:nodetypes="cc"/><path id="shape123" transform="matrix(0.366206000007885 0.930533590567512 -0.930533590567512 0.366206000007885 66.3838719162021 136.776246195459)" fill="none" stroke="#000000" stroke-width="2.64" stroke-linecap="round" stroke-linejoin="miter" stroke-miterlimit="1.91999995708466" d="M0 0.49202L0.43659 0" sodipodi:nodetypes="cc"/><path id="shape131" transform="matrix(0.3619054086901 0.932214569641647 -0.932214569641647 0.3619054086901 64.5352685238311 149.093090365658)" fill="none" stroke="#000000" stroke-width="2.64" stroke-linecap="round" stroke-linejoin="miter" stroke-miterlimit="1.91999995708466" d="M0 0.592563L0.731501 0" sodipodi:nodetypes="cc"/><path id="shape141" transform="matrix(0.0996870425492155 0.725866959529696 -0.990700661404572 0.13605801681752 68.567070173536 154.366345897305)" fill="none" stroke="#000000" stroke-width="2.64" stroke-linecap="round" stroke-linejoin="miter" stroke-miterlimit="1.91999995708466" d="M0 1.02139L1.88325 0" sodipodi:nodetypes="cc"/><path id="shape15" transform="matrix(-0.113099480869347 0.993583459944283 -0.993583459944283 -0.113099480869347 98.9122399188742 162.997580853431)" fill="none" stroke="#000000" stroke-width="2.64" stroke-linecap="round" stroke-linejoin="miter" stroke-miterlimit="1.91999995708466" d="M0 0.889735L1.16474 0" sodipodi:nodetypes="cc"/><path id="shape16" transform="matrix(-0.216954127817591 0.976181562791801 -0.976181562791801 -0.216954127817591 115.997051798397 197.79355606356)" fill="none" stroke="#000000" stroke-width="2.64" stroke-linecap="round" stroke-linejoin="miter" stroke-miterlimit="1.91999995708466" d="M0 1.02139L1.47356 0" sodipodi:nodetypes="cc"/><path id="shape17" transform="matrix(0.136058025636227 0.990700725617611 -0.990700725617611 0.136058025636227 77.6093267853022 142.814408306389)" fill="none" stroke="#000000" stroke-width="2.64" stroke-linecap="round" stroke-linejoin="miter" stroke-miterlimit="1.91999995708466" d="M0 0.327753L0.656594 0" sodipodi:nodetypes="cc"/><path id="shape18" transform="matrix(0.136058027153662 0.990700736666752 -0.990700736666752 0.136058027153662 77.8335408578694 151.76520111927)" fill="none" stroke="#000000" stroke-width="2.64" stroke-linecap="round" stroke-linejoin="miter" stroke-miterlimit="1.91999995708466" d="M0 0.593329L0.808161 0" sodipodi:nodetypes="cc"/><path id="shape09" transform="matrix(-1 0 0 1 202.889998574466 108.877137646566)" fill="none" stroke="#000000" stroke-width="3.84" stroke-linecap="square" stroke-linejoin="miter" stroke-miterlimit="2" d="M82.89 21.2929C83.328 4.49645 30.5066 -5.43001 0 3.14285" sodipodi:nodetypes="cc"/><path id="shape010" transform="matrix(-1 0 0 1 217.740003681483 115.665001955629)" fill="none" stroke="#000000" stroke-width="3.84" stroke-linecap="round" stroke-linejoin="miter" stroke-miterlimit="1.91999995708466" d="M24.4877 90.0394L0 0" sodipodi:nodetypes="cc"/><path id="shape011" transform="matrix(-1 0 0 1 216.986370775941 111.390001883349)" fill="none" stroke="#000000" stroke-width="3.84" stroke-linecap="round" stroke-linejoin="miter" stroke-miterlimit="1.91999995708466" d="M0 3.60677L4.30887 0" sodipodi:nodetypes="cc"/><path id="shape012" transform="matrix(-0.96933759004357 0 0 1 192.584321428265 205.874140165528)" fill="none" stroke="#000000" stroke-width="3.84" stroke-linecap="round" stroke-linejoin="miter" stroke-miterlimit="1.91999995708466" d="M0 0C23.3852 4.35174 44.6774 11.6746 66.9332 21.6799" sodipodi:nodetypes="cc"/><path id="shape013" transform="matrix(-1 0 0 1 211.852511374694 111.480005985537)" fill="none" stroke="#000000" stroke-width="3.84" stroke-linecap="round" stroke-linejoin="miter" stroke-miterlimit="1.91999995708466" d="M91.8525 21.96C61.4539 12.2736 28.3987 4.40643 0 0" sodipodi:nodetypes="cc"/><path id="shape014" transform="translate(120, 145.352865019503)" fill="none" stroke="#000000" stroke-width="3.84" stroke-linecap="round" stroke-linejoin="round" d="M0 74.8826L0 0" sodipodi:nodetypes="cc"/><path id="shape015" transform="translate(112.26027608776, 227.47979414722)" fill="none" stroke="#000000" stroke-width="3.84" stroke-linecap="round" stroke-linejoin="miter" stroke-miterlimit="1.91999995708466" d="M0 0C5.16307 1.66469 10.3249 1.65871 15.4856 0" sodipodi:nodetypes="cc"/><path id="shape015" transform="translate(28.1587485808685, 118.200005985537)" fill="none" stroke="#000000" stroke-width="3.84" stroke-linecap="round" stroke-linejoin="miter" stroke-miterlimit="1.91999995708466" d="M82.2242 19.7495C51.8256 10.0631 28.3987 4.40643 0 0" sodipodi:nodetypes="cc"/><path id="shape016" transform="matrix(-1 0 0 1 211.841251419131 118.200005985537)" fill="none" stroke="#000000" stroke-width="3.84" stroke-linecap="round" stroke-linejoin="miter" stroke-miterlimit="1.91999995708466" d="M82.2242 19.7495C51.8256 10.0631 28.3987 4.40643 0 0" sodipodi:nodetypes="cc"/><path id="shape017" transform="matrix(0.993708804367677 -0.111994696848387 0.111994696848387 0.993708804367677 195.374211466164 78.8303100054126)" fill="none" stroke="#000000" stroke-width="3.36" stroke-linecap="round" stroke-linejoin="round" d="M13.867 12.9458C11.3839 12.6342 10.7438 13.6127 9.57136 14.2186C7.50719 17.7946 9.19055 20.9762 9.57136 24.2949C13.6323 26.0587 17.3176 25.5501 20.8144 24.1888C22.7756 19.4326 25.1119 14.7573 20.0719 8.49105C16.9038 8.03188 14.0002 8.76325 11.1093 9.55171C11.5378 6.66016 11.1343 1.0777 7.8531 0.249721C4.71176 -0.779354 3.67697 1.63009 2.76193 2.79531C5.23087 6.47606 4.94921 11.8472 3.89683 12.3519L1.29821 11.8852C-1.36558 19.0634 0.717368 21.5591 1.82854 24.507C3.21036 24.728 4.54498 24.8074 5.64691 24.1888C7.88649 25.178 8.7079 24.6073 9.57136 24.0828" sodipodi:nodetypes="ccccccccccccc"/><path id="shape14" transform="matrix(-0.852378446966634 -0.12330661616033 -0.12330661616033 0.852378446966634 45.1713629795133 73.1013597429352)" fill="none" stroke="#000000" stroke-width="3.6" stroke-linecap="round" stroke-linejoin="round" d="M13.867 12.9458C11.3839 12.6342 10.7438 13.6127 9.57136 14.2186C7.50719 17.7946 9.19055 20.9762 9.57136 24.2949C13.6323 26.0587 17.3176 25.5501 20.8144 24.1888C22.7756 19.4326 25.1119 14.7573 20.0719 8.49105C16.9038 8.03188 14.0002 8.76325 11.1093 9.55171C11.5378 6.66016 11.1343 1.0777 7.8531 0.249721C4.71176 -0.779354 3.67697 1.63009 2.76193 2.79531C5.23087 6.47606 4.94921 11.8472 3.89683 12.3519L1.29821 11.8852C-1.36558 19.0634 0.717368 21.5591 1.82854 24.507C3.21036 24.728 4.54498 24.8074 5.64691 24.1888C7.88649 25.178 8.7079 24.6073 9.57136 24.0828" sodipodi:nodetypes="ccccccccccccc"/><path id="shape24" transform="matrix(-0.650634743802627 -0.225552573429875 -0.225552573429875 0.650634743802627 85.051789618886 27.468827487309)" fill="none" stroke="#000000" stroke-width="3.6" stroke-linecap="round" stroke-linejoin="round" d="M13.867 12.9458C11.3839 12.6342 10.7438 13.6127 9.57136 14.2186C7.50719 17.7946 9.19055 20.9762 9.57136 24.2949C13.6323 26.0587 17.3176 25.5501 20.8144 24.1888C22.7756 19.4326 25.1119 14.7573 20.0719 8.49105C16.9038 8.03188 14.0002 8.76325 11.1093 9.55171C11.5378 6.66016 11.1343 1.0777 7.8531 0.249721C4.71176 -0.779354 3.67697 1.63009 2.76193 2.79531C5.23087 6.47606 4.94921 11.8472 3.89683 12.3519L1.29821 11.8852C-1.36558 19.0634 0.717368 21.5591 1.82854 24.507C3.21036 24.728 4.54498 24.8074 5.64691 24.1888C7.88649 25.178 8.7079 24.6073 9.57136 24.0828" sodipodi:nodetypes="ccccccccccccc"/><path id="shape25" transform="matrix(0.617984429949694 0.0767439891224423 -0.0835708072871197 0.672957690788889 158.437385631406 18.7207198976016)" fill="none" stroke="#000000" stroke-width="5.28" stroke-linecap="round" stroke-linejoin="bevel" d="M18.2335 27.641C12.1685 21.366 -0.796515 18.391 0.0384864 8.816C-0.020503 1.80774 10.7667 -5.77313 18.3235 6.55433" sodipodi:nodetypes="ccc"/><path id="shape33" transform="matrix(-0.617984429949694 -0.0767439891224423 -0.0835708072871197 0.672957690788889 181.092865545308 21.3911239724331)" fill="none" stroke="#000000" stroke-width="5.28" stroke-linecap="round" stroke-linejoin="bevel" d="M18.2335 27.8503C12.1685 21.5753 -0.796515 18.6003 0.0384864 9.02531C-0.020503 1.98011 10.5867 -6.02 18.1435 6.76364" sodipodi:nodetypes="ccc"/><path id="shape018" transform="matrix(0.20902615754793 0 0 0.226942393436065 148.125243130691 38.1667548270762)" fill="#000000" fill-rule="evenodd" stroke="#000000" stroke-width="3.12" stroke-linecap="square" stroke-linejoin="round" d="M28.2197 0C29.1331 19.0661 36.4709 25.2815 55.5442 29.2038C26.582 36.2009 32.3992 47.6687 28.3424 59.3358C26.7378 45.1782 24.6102 35.5513 0 29.3305C15.0279 26.1806 28.5524 24.4081 28.2197 0Z" sodipodi:nodetypes="ccccc"/><path id="shape15" transform="matrix(0.20902615754793 0 0 0.226942393436065 43.9684425402243 34.4970089658937)" fill="#000000" fill-rule="evenodd" stroke="#000000" stroke-width="3.12" stroke-linecap="square" stroke-linejoin="round" d="M22.7796 0C23.5169 17.5785 29.4401 23.3089 44.8365 26.9252C21.4576 33.3764 26.1533 43.9494 22.8786 54.7062C21.5833 41.6532 19.8659 32.7774 0 27.042C12.1308 24.1379 23.0481 22.5036 22.7796 0Z" sodipodi:nodetypes="ccccc"/><path id="shape26" transform="matrix(0.20902615754793 0 0 0.226942393436065 199.295327012927 55.8530280782997)" fill="#000000" fill-rule="evenodd" stroke="#000000" stroke-width="3.12" stroke-linecap="square" stroke-linejoin="round" d="M18.0529 0C18.6372 13.931 23.3314 18.4724 35.5331 21.3383C17.0052 26.4509 20.7266 34.8301 18.1314 43.3549C17.1049 33.0103 15.7438 25.9762 0 21.4309C9.61374 19.1294 18.2657 17.8342 18.0529 0Z" sodipodi:nodetypes="ccccc"/><path id="shape34" transform="matrix(0.20902615754793 0 0 0.226942393436065 102.867957389761 75.2818575797785)" fill="#000000" fill-rule="evenodd" stroke="#000000" stroke-width="3.12" stroke-linecap="square" stroke-linejoin="round" d="M9.98286 0C10.306 7.70356 12.9018 10.2148 19.649 11.7996C9.40352 14.6268 11.4614 19.2603 10.0263 23.9743C9.45862 18.254 8.70599 14.3643 0 11.8508C5.31619 10.5781 10.1006 9.86194 9.98286 0Z" sodipodi:nodetypes="ccccc"/><path id="shape016" transform="matrix(0.209026154107672 0 0 0.226942389700933 30.753601994692 60.2434551610875)" fill="#000000" fill-rule="evenodd" stroke="#000000" stroke-width="3.12" stroke-linecap="square" stroke-linejoin="round" d="M9.98286 0C10.306 7.70356 12.9018 10.2148 19.649 11.7996C9.40352 14.6268 11.4614 19.2603 10.0263 23.9743C9.45862 18.254 8.70599 14.3643 0 11.8508C5.31619 10.5781 10.1006 9.86194 9.98286 0Z" sodipodi:nodetypes="ccccc"/><path id="shape0112" transform="matrix(0.209026152181509 0 0 0.226942387609672 186.677807896052 25.2257371925821)" fill="#000000" fill-rule="evenodd" stroke="#000000" stroke-width="3.12" stroke-linecap="square" stroke-linejoin="round" d="M9.98286 0C10.306 7.70356 12.9018 10.2148 19.649 11.7996C9.40352 14.6268 11.4614 19.2603 10.0263 23.9743C9.45862 18.254 8.70599 14.3643 0 11.8508C5.31619 10.5781 10.1006 9.86194 9.98286 0Z" sodipodi:nodetypes="ccccc"/><rect id="shape019" transform="translate(52.2600000192174, 71.76)" fill="none" stroke="#000000" stroke-width="3.84" stroke-linecap="round" stroke-linejoin="bevel" width="36" height="24.48" rx="0.794998595229401" ry="0.794998595229401"/><path id="shape020" transform="translate(66.3049901311167, 79.1892658049249)" fill="#000000" fill-rule="evenodd" stroke="#000000" stroke-width="3.84" stroke-linecap="butt" stroke-linejoin="round" d="M0 0C0.0212132 2.07889 0.0565685 5.54372 0.106066 10.3945L9.22774 5.3033L0 0" sodipodi:nodetypes="cccc"/><path id="shape021" transform="matrix(0.99999999889588 -4.69919044575852e-05 4.69919044575852e-05 0.99999999889588 56.4675005979782 101.37087280771)" fill="none" stroke="#000000" stroke-width="3.84" stroke-linecap="round" stroke-linejoin="miter" stroke-miterlimit="1.91999995708466" d="M0 0L37.0163 0.0525037" sodipodi:nodetypes="cc"/><path id="shape16" transform="translate(93.5925029428853, 76.4371973745296)" fill="none" stroke="#000000" stroke-width="3.84" stroke-linecap="round" stroke-linejoin="miter" stroke-miterlimit="1.91999995708466" d="M0 24.7078L0 0" sodipodi:nodetypes="cc"/><path id="shape022" transform="matrix(0.935983438092229 -4.39836443452753e-05 4.69919044575852e-05 0.99999999889588 66.8700026476297 106.309229950817)" fill="none" stroke="#000000" stroke-width="3.84" stroke-linecap="round" stroke-linejoin="miter" stroke-miterlimit="1.91999995708466" d="M0 0L33.941 0.0619755" sodipodi:nodetypes="cc"/><path id="shape17" transform="matrix(1 0 0 0.880429482970994 98.5800002140354 84.8918060870955)" fill="none" stroke="#000000" stroke-width="3.84" stroke-linecap="round" stroke-linejoin="miter" stroke-miterlimit="1.91999995708466" d="M0 24.4683L0.00266778 0" sodipodi:nodetypes="cc"/><path id="shape023" transform="matrix(0.935983438092229 -4.39836443452753e-05 4.69919044575852e-05 0.99999999889588 88.710032285021 111.109041041836)" fill="none" stroke="#000000" stroke-width="3.84" stroke-linecap="round" stroke-linejoin="miter" stroke-miterlimit="1.91999995708466" d="M0 0L15.7355 0.0613636" sodipodi:nodetypes="cc"/><path id="shape18" transform="matrix(1 0 0 0.880429482970994 103.380000214035 94.5600035730488)" fill="none" stroke="#000000" stroke-width="3.84" stroke-linecap="round" stroke-linejoin="miter" stroke-miterlimit="1.91999995708466" d="M0 18.9389L0.00723385 0" sodipodi:nodetypes="cc"/><ellipse id="shape024" transform="translate(100.571249997928, 11.52)" rx="19.44" ry="19.32" cx="19.44" cy="19.32" fill="none" stroke="#000000" stroke-width="3.84" stroke-linecap="square" stroke-linejoin="bevel"/><path id="shape025" transform="translate(134.265008867448, 26.9100016445084)" fill="none" stroke="#000000" stroke-width="3.6" stroke-linecap="round" stroke-linejoin="miter" stroke-miterlimit="1.91999995708466" d="M9.675 0C11.4681 10.7688 6.53116 17.5095 0 23.325" sodipodi:nodetypes="cc"/><path id="shape026" transform="matrix(0.999910374343848 0.0133881768566768 -0.0133881768566768 0.999910374343848 121.457802635416 48.2419456044393)" fill="none" stroke="#000000" stroke-width="3.84" stroke-linecap="square" stroke-linejoin="miter" stroke-miterlimit="2" d="M9.91197 0C29.4831 16.557 21.6683 31.7642 10.4137 44.6638C-4.02016 59.0141 0.135724 71.9776 2.08563 73.5667" sodipodi:nodetypes="ccc"/><path id="shape017" transform="matrix(0.999910374343848 0.0133881768566768 -0.0133881768566768 0.999910374343848 101.59859270473 36.9017585061135)" fill="none" stroke="#000000" stroke-width="3.84" stroke-linecap="round" stroke-linejoin="miter" stroke-miterlimit="1.91999995708466" d="M0 0C5.12693 15.483 26.5789 18.1709 28.0309 36.2679C28.1773 46.5338 21.6238 51.4378 17.88 55.714C7.53947 67.8672 16.4868 86.2578 18.3926 87.8458" sodipodi:nodetypes="cccc"/><path id="shape027" transform="matrix(0.989199100234883 0.146578102370377 -0.146578102370377 0.989199100234883 123.273138296802 51.7590128621155)" fill="none" stroke="#000000" stroke-width="3.36" stroke-linecap="square" stroke-linejoin="miter" stroke-miterlimit="2" d="M0 4.2C3.88211 2.54932 7.78721 0.828463 11.4 0" sodipodi:nodetypes="cc"/><path id="shape19" transform="translate(115.771059625472, 117.173105507985)" fill="none" stroke="#000000" stroke-width="3.36" stroke-linecap="square" stroke-linejoin="miter" stroke-miterlimit="2" d="M0 0.295011C1.40965 -0.0706744 2.81929 -0.0626972 4.22894 0.135912" sodipodi:nodetypes="cc"/><path id="shape27" transform="translate(114.840007756829, 105.135007101308)" fill="none" stroke="#000000" stroke-width="3.36" stroke-linecap="square" stroke-linejoin="miter" stroke-miterlimit="2" d="M0 0C2.1997 0.151218 4.22225 1.011 6.225 1.95" sodipodi:nodetypes="cc"/><path id="shape35" transform="translate(120, 93.6350799989217)" fill="none" stroke="#000000" stroke-width="3.36" stroke-linecap="square" stroke-linejoin="miter" stroke-miterlimit="2" d="M0 0C2.59864 0.337556 4.74653 1.42637 6.74889 2.75772" sodipodi:nodetypes="cc"/><path id="shape42" transform="matrix(0.99663537948063 -0.0819629206867423 0.0819629206867423 0.99663537948063 127.530008085457 82.6800052419474)" fill="none" stroke="#000000" stroke-width="3.36" stroke-linecap="square" stroke-linejoin="miter" stroke-miterlimit="2" d="M0 0C3.26372 0.684021 6.44005 1.5433 9.22774 3.18198" sodipodi:nodetypes="cc"/><path id="shape52" transform="matrix(0.998232483908038 0.0594298584113358 -0.0594298584113358 0.998232483908038 128.755051024488 67.3089815080382)" fill="none" stroke="#000000" stroke-width="3.36" stroke-linecap="square" stroke-linejoin="miter" stroke-miterlimit="2" d="M0 2.70757C4.62864 1.02879 9.28977 -0.104039 14.025 0.00757178" sodipodi:nodetypes="cc"/><circle id="shape028" transform="translate(116.4, 39.1124999696536)" r="3.6" cx="3.6" cy="3.6" fill="#000000" fill-rule="evenodd" stroke="#000000" stroke-width="3.6" stroke-linecap="square" stroke-linejoin="bevel"/><circle id="shape110" transform="translate(106.350244543868, 33.3451601080807)" r="3.6" cx="3.6" cy="3.6" fill="#000000" fill-rule="evenodd" stroke="#000000" stroke-width="3.6" stroke-linecap="square" stroke-linejoin="bevel"/><circle id="shape28" transform="translate(126.58233770296, 33.4711135015256)" r="3.6" cx="3.6" cy="3.6" fill="#000000" fill-rule="evenodd" stroke="#000000" stroke-width="3.6" stroke-linecap="square" stroke-linejoin="bevel"/><circle id="shape36" transform="matrix(1 0 0 -1 116.4 22.7268746750063)" r="3.6" cx="3.6" cy="3.6" fill="#000000" fill-rule="evenodd" stroke="#000000" stroke-width="3.6" stroke-linecap="square" stroke-linejoin="bevel"/><circle id="shape43" transform="matrix(1 0 0 -1 106.359619543829 28.4311402677289)" r="3.6" cx="3.6" cy="3.6" fill="#000000" fill-rule="evenodd" stroke="#000000" stroke-width="3.6" stroke-linecap="square" stroke-linejoin="bevel"/><circle id="shape53" transform="matrix(1 0 0 -1 126.572962702802 28.385873765133)" r="3.6" cx="3.6" cy="3.6" fill="#000000" fill-rule="evenodd" stroke="#000000" stroke-width="3.6" stroke-linecap="square" stroke-linejoin="bevel"/><path id="shape6" transform="translate(119.28, 30)" sodipodi:type="arc" sodipodi:rx="0.719999999999999" sodipodi:ry="0.84" sodipodi:cx="0.719999999999999" sodipodi:cy="0.84" sodipodi:start="6.28318530717959" sodipodi:end="6.28318530717958" sodipodi:open="true" d="M1.44 0.84C1.44 0.376081 1.11765 -1.72278e-15 0.72 0C0.322355 1.72278e-15 -3.04484e-16 0.376081 0 0.84C3.04484e-16 1.30392 0.322355 1.68 0.72 1.68C1.11765 1.68 1.44 1.30392 1.44 0.84Z" fill="#272727" fill-rule="evenodd" stroke="#000000" stroke-width="3.6" stroke-linecap="square" stroke-linejoin="bevel"/><path id="shape7" transform="translate(119.546258094953, 30.5025020654459)" fill="none" stroke="#000000" stroke-width="2.88" stroke-linecap="square" stroke-linejoin="miter" stroke-miterlimit="2" d="M0 0L0.453742 0.375" sodipodi:nodetypes="cc"/><path id="shape029" transform="translate(140.983900683895, 103.965000860092)" fill="none" stroke="#000000" stroke-width="3.6" stroke-linecap="round" stroke-linejoin="miter" stroke-miterlimit="1.91999995708466" d="M0 0L0 9.64501" sodipodi:nodetypes="cc"/><path id="shape030" transform="translate(144.929433689485, 89.4599993233508)" fill="none" stroke="#000000" stroke-width="3.6" stroke-linecap="round" stroke-linejoin="miter" stroke-miterlimit="1.91999995708466" d="M0 0L0 20.7843" sodipodi:nodetypes="cc"/><path id="shape111" transform="translate(145.165361677518, 110.377502766031)" fill="none" stroke="#000000" stroke-width="3.6" stroke-linecap="round" stroke-linejoin="miter" stroke-miterlimit="1.91999995708466" d="M0 0L11.4941 0" sodipodi:nodetypes="cc"/><path id="shape031" transform="translate(149.302466733836, 75.5402169593096)" fill="none" stroke="#000000" stroke-width="3.6" stroke-linecap="round" stroke-linejoin="miter" stroke-miterlimit="1.91999995708466" d="M0 0L0 30.444" sodipodi:nodetypes="cc"/><path id="shape112" transform="translate(149.538394721869, 106.117502956216)" fill="none" stroke="#000000" stroke-width="3.6" stroke-linecap="round" stroke-linejoin="miter" stroke-miterlimit="1.91999995708466" d="M0 0L10.3031 0" sodipodi:nodetypes="cc"/><path id="shape032" transform="translate(153.756400666344, 62.2595027798251)" fill="none" stroke="#000000" stroke-width="3.6" stroke-linecap="round" stroke-linejoin="miter" stroke-miterlimit="1.91999995708466" d="M0 0L0 38.5562" sodipodi:nodetypes="cc"/><path id="shape113" transform="translate(153.976037374228, 101.156843029844)" fill="none" stroke="#000000" stroke-width="3.6" stroke-linecap="round" stroke-linejoin="miter" stroke-miterlimit="1.91999995708466" d="M0 0L21.6693 0" sodipodi:nodetypes="cc"/><path id="shape033" transform="matrix(0.967950101226539 0 0 1 158.442552597736 55.4539454680842)" fill="none" stroke="#000000" stroke-width="3.6" stroke-linecap="round" stroke-linejoin="miter" stroke-miterlimit="1.91999995708466" d="M0 0L0.0254792 36.4234" sodipodi:nodetypes="cc"/><path id="shape114" transform="matrix(0.967950101226539 0 0 1 158.46821925716 55.3743959535192)" fill="none" stroke="#000000" stroke-width="3.6" stroke-linecap="round" stroke-linejoin="miter" stroke-miterlimit="1.91999995708466" d="M0 0L33.1393 0" sodipodi:nodetypes="cc"/><path id="shape29" transform="matrix(0.967950101226539 0 0 1 190.679864017872 55.644863187225)" fill="none" stroke="#000000" stroke-width="3.6" stroke-linecap="round" stroke-linejoin="miter" stroke-miterlimit="1.91999995708466" d="M0 0L0.0527306 33.8076" sodipodi:nodetypes="cc"/><path id="shape37" transform="matrix(0.967950101226539 0 0 1 162.513217754571 89.5012351583208)" fill="none" stroke="#000000" stroke-width="3.6" stroke-linecap="round" stroke-linejoin="miter" stroke-miterlimit="1.91999995708466" d="M29.1525 0L0 0" sodipodi:nodetypes="cc"/><path id="shape44" transform="matrix(0.967950101226539 0 0 1 158.491872589179 89.4908387706647)" fill="none" stroke="#000000" stroke-width="3.6" stroke-linecap="round" stroke-linejoin="miter" stroke-miterlimit="1.91999995708466" d="M3.12999 0C-1.08577 0.0729236 -1.00067 6.03263 3.12999 6.20486" sodipodi:nodetypes="cc"/><path id="shape018" transform="matrix(0.967950076211419 0 0 0.999999974156602 162.585086765301 95.6762234872676)" fill="none" stroke="#000000" stroke-width="3.6" stroke-linecap="round" stroke-linejoin="miter" stroke-miterlimit="1.91999995708466" d="M28.3624 0L0 0" sodipodi:nodetypes="cc"/><path id="shape210" transform="matrix(0.445668772501358 -0.113410551474365 0.123499070741144 0.485313566918905 78.6093964981888 52.6495404022826)" fill="none" stroke="#000000" stroke-width="6.24" stroke-linecap="round" stroke-linejoin="bevel" d="M18.2335 27.641C12.1685 21.366 -0.796515 18.391 0.0384864 8.816C-0.020503 1.80774 10.7667 -5.77313 18.3235 6.55433" sodipodi:nodetypes="ccc"/><path id="shape38" transform="matrix(-0.445668772501358 0.113410551474365 0.123499070741144 0.485313566918905 94.9092659274823 48.3934901918166)" fill="none" stroke="#000000" stroke-width="6.24" stroke-linecap="round" stroke-linejoin="bevel" d="M18.2335 27.8503C12.1685 21.5753 -0.796515 18.6003 0.0384864 9.02531C-0.020503 1.98011 10.5867 -6.02 18.1435 6.76364" sodipodi:nodetypes="ccc"/><ellipse id="shape0" transform="translate(64.9796971741852, 77.7984233028973)" rx="1.32" ry="1.2" cx="1.32" cy="1.2" fill="#000000" fill-rule="evenodd" stroke="#000000" stroke-width="1.0008" stroke-linecap="square" stroke-linejoin="bevel"/>
</svg>
