<?xml version="1.0" standalone="no"?>
<!DOCTYPE svg PUBLIC "-//W3C//DTD SVG 20010904//EN" "http://www.w3.org/TR/2001/REC-SVG-20010904/DTD/svg10.dtd">
<!-- Created using Krita: https://krita.org -->
<svg xmlns="http://www.w3.org/2000/svg" 
    xmlns:xlink="http://www.w3.org/1999/xlink"
    xmlns:krita="http://krita.org/namespaces/svg/krita"
    xmlns:sodipodi="http://sodipodi.sourceforge.net/DTD/sodipodi-0.dtd"
    width="240pt"
    height="240pt"
    viewBox="0 0 240 240">
<defs/>
<path id="shape0" transform="matrix(1.0046039858446 0 0 1 119.550006388303 110.490003885885)" fill="#504f9e" fill-rule="evenodd" stroke="#403f78" stroke-width="0.24" stroke-linecap="square" stroke-linejoin="bevel" d="M0 118.954C23.7694 110.414 46.7482 100.853 73.14 95.7L97.74 5.4L92.34 0L0 23.865L0 118.954" sodipodi:nodetypes="cccccc"/><path id="shape1" transform="translate(120, 107.864466213152)" fill="#bcbbea" fill-rule="evenodd" stroke="#d7d6ff" stroke-width="0.24" stroke-linecap="square" stroke-linejoin="bevel" d="M0 24.2711C27.6506 16.9472 54.3142 9.21265 86.73 3.87107C70.6835 2.45354 66.9931 -3.43006 29.73 2.82107C-2.27556 10.3819 4.09216 17.2292 0 24.2711" sodipodi:nodetypes="cccc"/><path id="shape2" transform="translate(120, 118.687870898118)" fill="#403f78" fill-rule="evenodd" stroke="#403f78" stroke-width="0.24" stroke-linecap="square" stroke-linejoin="bevel" d="M0 7.7163L0 0L2.71308 4.03051L0 7.7163" sodipodi:nodetypes="cccc"/><path id="shape3" transform="translate(120, 11.5950002359431)" fill="#504f9e" fill-rule="evenodd" stroke="#403f78" stroke-width="0.24" stroke-linecap="square" stroke-linejoin="bevel" d="M0 97.2287L11.6279 80.4703C17.0436 75.6488 19.756 68.4421 22.8709 61.5906L20.9405 47.2929L11.0127 35.6256L19.498 24.3826L18.1192 11.4425L8.36109 1.2602L0 0L0 45.9034L7.905 53.715L7.92622 68.4318L0 80.2794L0 97.2287" sodipodi:nodetypes="cccccccccccccc"/><path id="shape4" transform="translate(157.306507922467, 20.2586090035677)" fill="#6866b6" fill-rule="evenodd" stroke="#403f78" stroke-width="0.24" stroke-linecap="square" stroke-linejoin="bevel" d="M10.1823 18.1373L0 8.69741L2.70468 0.053033L9.59897 0.106066L12.1976 4.40174L16.5463 0L22.2739 2.54558L22.9633 10.3945L10.1823 18.1373" sodipodi:nodetypes="ccccccccc"/><path id="shape5" transform="translate(197.415012072151, 77.6550047486914)" fill="#bcbbea" fill-rule="evenodd" stroke="#5351a9" stroke-width="0.24" stroke-linecap="square" stroke-linejoin="bevel" d="M0 12.975L1.95 25.5L21.225 22.95L23.25 12.975L18.825 7.275L10.275 8.55L8.175 1.125L3.45 0L0.6 3.675L4.05 12.675L0 12.975" sodipodi:nodetypes="ccccccccccc"/><path id="shape6" transform="translate(131.055000081532, 14.1600000088092)" fill="#bcbbea" fill-rule="evenodd" stroke-opacity="0" stroke="#000000" stroke-width="0" stroke-linecap="square" stroke-linejoin="bevel" d="M0 0C6.95894 5.8702 11.9936 22.5708 0.225 34.275L4.05 37.575C15.4443 25.289 16.063 6.46784 0 0Z" sodipodi:nodetypes="cccc"/><path id="shape01" transform="translate(22.5284216360471, 111.581448027879)" fill="#ffc1a3" fill-rule="evenodd" stroke-opacity="0" stroke="#000000" stroke-width="0" stroke-linecap="square" stroke-linejoin="bevel" d="M4.24264 0L0 4.45477L24.6073 94.1866C49.2813 99.1412 73.3422 108.694 97.4716 117.733L97.4716 21.2132C62.0285 10.5431 32.3933 4.65972 4.24264 0" sodipodi:nodetypes="cccccc"/><path id="shape11" transform="translate(38.3110467906301, 109.717531765493)" fill="#fff4ec" fill-rule="evenodd" stroke="#fff4ec" stroke-width="0.24" stroke-linecap="square" stroke-linejoin="bevel" d="M0 2.09727C12.9035 1.26164 11.5 -1.20969 42.7446 0.718409C67.5041 3.12921 82.8481 10.2237 81.0526 22.9923C53.2838 15.0058 24.089 7.75442 0 2.09727" sodipodi:nodetypes="cccc"/><path id="shape21" transform="translate(23.3918708242206, 72.1658890209602)" fill="#fff4ec" fill-rule="evenodd" stroke="#ffcaa3" stroke-width="0.24" stroke-linecap="square" stroke-linejoin="bevel" d="M16.8681 20.7441C12.1347 21.7305 6.36009 21.9644 0.44313 19.0941C0.158109 14.3988 -1.3128 9.54331 3.36813 5.51911C5.7852 6.0312 7.93783 6.56732 11.8431 6.94411L13.3431 0.419111C15.6482 -0.23329 17.8843 -0.513103 19.4931 2.59411L16.4181 10.5441C22.6085 13.8482 19.2737 17.3035 16.8681 20.7441" sodipodi:nodetypes="cccccccc"/><path id="shape02" transform="matrix(0.710957820758401 0.198682114521801 -0.208020581738139 0.74437429771372 69.3698819700988 22.9003231223421)" fill="#fff4ec" fill-rule="evenodd" stroke="#ffcaa3" stroke-width="0.24" stroke-linecap="square" stroke-linejoin="bevel" d="M17.6799 21.6132C15.9748 21.9685 14.1347 22.2262 12.2014 22.2763C9.11147 21.2819 5.19255 21.3202 1.25491 19.9632C0.605832 15.3097 -2.41711 10.6328 4.17991 6.38818C6.59698 6.90027 7.92804 6.93689 11.8333 7.31368C11.1346 4.81124 12.0528 1.95134 13.3333 0.788682C15.5719 0.0906054 16.0709 -1.44752 20.3049 3.46318C15.4512 3.87159 18.2549 8.76317 17.2299 11.4132C24.7751 11.0383 21.2854 19.9846 17.6799 21.6132" sodipodi:nodetypes="ccccccccc"/><path id="shape31" transform="translate(79.755002719336, 49.0996040825724)" fill="#ffe0c9" fill-rule="evenodd" stroke="#ffe0c9" stroke-width="0.24" stroke-linecap="square" stroke-linejoin="bevel" d="M10.275 14.8304L0 10.3304C1.51303 7.15137 -1.99495 -1.58939 7.8 4.4054C11.5908 -1.40855 14.768 -2.26687 16.725 6.7304L10.275 14.8304" sodipodi:nodetypes="ccccc"/><path id="shape41" transform="translate(113.684327362557, 91.2900062008574)" fill="#ffc1a3" fill-rule="evenodd" stroke-opacity="0" stroke="#000000" stroke-width="0" stroke-linecap="square" stroke-linejoin="bevel" d="M6.31567 33.825L6.31567 0C2.371 5.1459 -0.227107 11.0613 0.0156803 18.6C0.0772464 27.5951 3.91355 29.331 6.31567 33.825" sodipodi:nodetypes="cccc"/><path id="shape51" transform="translate(100.274815071527, 11.5824093566858)" fill="#ffc1a3" fill-rule="evenodd" stroke-opacity="0" stroke="#000000" stroke-width="0" stroke-linecap="square" stroke-linejoin="bevel" d="M19.7252 45.8629L2.86378 29.8046L0 15.2735L7.74282 3.81838L19.7252 0L19.7252 45.8629" sodipodi:nodetypes="cccccc"/><rect id="shape03" transform="translate(52.32, 72.96)" fill="#ffc1a3" fill-rule="evenodd" stroke-opacity="0" stroke="#000000" stroke-width="0" stroke-linecap="square" stroke-linejoin="bevel" width="35.52" height="23.28"/><rect id="shape04" transform="matrix(1.00000002219691 0 0 1.00000002219691 55.3555961275506 75.4977930627982)" fill="#ffc1a3" fill-rule="evenodd" stroke-opacity="0" stroke="#000000" stroke-width="0" stroke-linecap="square" stroke-linejoin="bevel" width="37.6273962196073" height="24.6611988736615"/><rect id="shape01" transform="matrix(0.999999984005463 0 0 0.999999984005463 153.308828787603 61.6389606624946)" fill="#504f9e" fill-rule="evenodd" stroke-opacity="0" stroke="#000000" stroke-width="0" stroke-linecap="square" stroke-linejoin="bevel" width="26.1511724764329" height="37.9910395033291" rx="1.36061342504764" ry="1.60234460845307"/><rect id="shape02" transform="matrix(1.00000000030547 0 0 1.00000000030547 65.5685531052888 84.4073387459607)" fill="#ffc1a3" fill-rule="evenodd" stroke-opacity="0" stroke="#000000" stroke-width="0" stroke-linecap="square" stroke-linejoin="bevel" width="33.0877591749279" height="21.685896216"/><rect id="shape03" transform="matrix(0.999999965783989 0 0 0.999999965783989 77.1986386869139 93.5290164691984)" fill="#ffc1a3" fill-rule="evenodd" stroke-opacity="0" stroke="#000000" stroke-width="0" stroke-linecap="square" stroke-linejoin="bevel" width="26.0392391333384" height="17.0662580806339"/><rect id="shape12" transform="translate(158.4, 55.2)" fill="#504f9e" fill-rule="evenodd" stroke-opacity="0" stroke="#000000" stroke-width="0" stroke-linecap="square" stroke-linejoin="bevel" width="32.4" height="34.32"/><rect id="shape04" transform="matrix(0.999999982196263 0 0 0.999999982196263 149.336339841929 75.523683331721)" fill="#504f9e" fill-rule="evenodd" stroke-opacity="0" stroke="#000000" stroke-width="0" stroke-linecap="square" stroke-linejoin="bevel" width="16.2486612277279" height="28.9063167198076" rx="1.30894106328796" ry="1.8246542222792"/><rect id="shape05" transform="matrix(1.00000000457896 0 0 1.00000000457896 144.642322262017 89.7530611677736)" fill="#504f9e" fill-rule="evenodd" stroke-opacity="0" stroke="#000000" stroke-width="0" stroke-linecap="square" stroke-linejoin="bevel" width="15.6658514419209" height="19.7739118698492" rx="2.22737663149423" ry="2.22737663149423"/><rect id="shape06" transform="matrix(1.00000000067813 0 0 1.00000000067813 140.775136038919 104.496237133645)" fill="#504f9e" fill-rule="evenodd" stroke-opacity="0" stroke="#000000" stroke-width="0" stroke-linecap="square" stroke-linejoin="bevel" width="4.3655977113483" height="7.39452772676839"/><rect id="shape07" transform="matrix(0.999999979309398 0 0 0.999999979309398 159.11999892767 89.9999981378458)" fill="#bcbbea" fill-rule="evenodd" stroke="#bcbbea" stroke-width="0.24" stroke-linecap="square" stroke-linejoin="bevel" width="31.68" height="4.8"/><rect id="shape22" transform="translate(155.625009153863, 97.3499996257254)" fill="#bcbbea" fill-rule="evenodd" stroke-opacity="0" stroke="#000000" stroke-width="0" stroke-linecap="square" stroke-linejoin="bevel" width="26.1599917028546" height="2.64000493686746" rx="0.787008098797129" ry="0.840628921354231"/><rect id="shape08" transform="matrix(1.00000001979893 0 0 1.00000001979893 151.028324506093 102.749999604964)" fill="#bcbbea" fill-rule="evenodd" stroke-opacity="0" stroke="#000000" stroke-width="0" stroke-linecap="square" stroke-linejoin="bevel" width="15.7566759679675" height="2.265005142077" rx="0.474030410168645" ry="0.721221692753815"/><rect id="shape09" transform="matrix(1.00000003249959 0 0 1.00000003249959 146.596796926294 107.78428459916)" fill="#bcbbea" fill-rule="evenodd" stroke-opacity="0" stroke="#000000" stroke-width="0" stroke-linecap="square" stroke-linejoin="bevel" width="14.1282082098247" height="1.5957191567984" rx="0.4250389070808" ry="0.50810801708401"/><path id="shape05" transform="translate(43.9537584724621, 151.886539895187)" fill="#fff4ec" fill-rule="evenodd" stroke="#fff4ec" stroke-width="0.24" stroke-linecap="square" stroke-linejoin="bevel" d="M19.1979 12.0915L14.7432 2.65165L7.84889 0L2.65165 1.06066L0 7.21249L3.07591 17.5009L10.6066 21.9557L14.3189 27.7893L13.0461 32.6683L7.21249 31.7137L4.24264 24.6073L2.22739 22.6981L0.848528 27.7893L3.71231 34.4715L10.1823 38.9262L18.6676 34.2593L17.0766 22.3799L4.6669 10.5005L9.33381 4.9851L13.8946 9.54594L15.5917 15.0614L19.1979 12.0915" sodipodi:nodetypes="cccccccccccccccccccccc"/><path id="shape13" transform="translate(65.9094245047971, 158.35656708346)" fill="#fff4ec" fill-rule="evenodd" stroke="#fff4ec" stroke-width="0.24" stroke-linecap="square" stroke-linejoin="bevel" d="M8.06102 0L2.01525 5.19723L0 12.5158L1.37886 25.4558L5.83363 33.1987L12.1976 38.502L21.6375 31.5016L22.2739 17.607L19.7283 7.95495L14.9553 1.80312L8.06102 0" sodipodi:nodetypes="ccccccccccc"/><path id="shape23" transform="translate(92.4683543181743, 164.82659166144)" fill="#fff4ec" fill-rule="evenodd" stroke="#fff4ec" stroke-width="0.24" stroke-linecap="square" stroke-linejoin="bevel" d="M4.45477 0L0.318198 11.1369L0 20.6829L3.28805 28.85L9.43988 35.6382L19.6222 36.6988L22.0617 32.9865L12.1976 28.3196L5.3033 14.0007L4.45477 0" sodipodi:nodetypes="cccccccccc"/><path id="shape32" transform="translate(125.910006237268, 160.380007944826)" fill="#d7d6ff" fill-rule="evenodd" stroke="#d7d6ff" stroke-width="0.24" stroke-linecap="square" stroke-linejoin="bevel" d="M0 6.6L0.15 36L6.45 42.3L14.7 38.55L19.05 28.65L18.9 2.25L16.8 0L14.1 2.85L13.95 31.95L10.5 36.3L5.7 35.1L4.2 29.25L4.2 5.25L2.7 3.15L0 6.6" sodipodi:nodetypes="ccccccccccccccc"/><path id="shape42" transform="translate(149.489441973368, 154.304839068295)" fill="#d7d6ff" fill-rule="evenodd" stroke="#d7d6ff" stroke-width="0.24" stroke-linecap="square" stroke-linejoin="bevel" d="M0 6.36396L0.212132 43.2749L3.60624 42.7446L4.77297 32.138L4.9851 16.9706L16.2281 40.7293L20.2586 39.0323L20.7889 1.48492L18.7737 0L15.3796 3.07591L15.2735 25.9862L5.09117 6.04576L2.33345 4.45477L0 6.36396" sodipodi:nodetypes="cccccccccccccc"/><path id="shape52" transform="translate(173.340000351479, 150.405000304974)" fill="#d7d6ff" fill-rule="evenodd" stroke="#d7d6ff" stroke-width="0.24" stroke-linecap="square" stroke-linejoin="bevel" d="M0 40.725L2.025 42.6L5.325 32.775L14.25 29.925L18.225 38.025L20.925 37.125L13.65 3.9L11.775 0L8.625 1.125L4.35 13.5L0 40.725" sodipodi:nodetypes="ccccccccccc"/><path id="shape61" transform="translate(180.110699120817, 163.808352701366)" fill="#484782" fill-rule="evenodd" stroke="#403f78" stroke-width="0.24" stroke-linecap="square" stroke-linejoin="bevel" d="M2.91682 0L0 11.4551L7.53069 10.3945L2.91682 0" sodipodi:nodetypes="cccc"/><path id="shape06" transform="translate(22.2712562740798, 115.665001955629)" fill="none" stroke="#000000" stroke-width="3.84" stroke-linecap="round" stroke-linejoin="miter" stroke-miterlimit="1.91999995708466" d="M24.4877 90.0394L0 0" sodipodi:nodetypes="cc"/><path id="shape011" transform="translate(23.024889179622, 111.390001883349)" fill="none" stroke="#000000" stroke-width="3.84" stroke-linecap="round" stroke-linejoin="miter" stroke-miterlimit="1.91999995708466" d="M0 3.60677L4.30887 0" sodipodi:nodetypes="cc"/><path id="shape021" transform="matrix(0.96933759004357 0 0 1 47.426938527298 205.874140165528)" fill="none" stroke="#000000" stroke-width="3.84" stroke-linecap="round" stroke-linejoin="miter" stroke-miterlimit="1.91999995708466" d="M0 0C23.3852 4.35174 44.6774 11.6746 66.9332 21.6799" sodipodi:nodetypes="cc"/><path id="shape031" transform="translate(28.1587485808685, 111.480005985537)" fill="none" stroke="#000000" stroke-width="3.84" stroke-linecap="round" stroke-linejoin="miter" stroke-miterlimit="1.91999995708466" d="M91.8525 21.96C61.4539 12.2736 28.3987 4.40643 0 0" sodipodi:nodetypes="cc"/><path id="shape041" transform="translate(37.1100014255344, 108.87713516099)" fill="none" stroke="#000000" stroke-width="3.84" stroke-linecap="square" stroke-linejoin="miter" stroke-miterlimit="2" d="M82.89 21.2929C83.328 4.49645 30.5066 -5.43001 0 3.14285" sodipodi:nodetypes="cc"/><path id="shape051" transform="matrix(0.658534065495222 -0.148641280511839 0 0.755405884987268 173.278388966495 153.163987303957)" fill="none" stroke="#000000" stroke-width="3.84" stroke-linecap="round" stroke-linejoin="round" d="M15.5917 0.000823498C14.119 -0.0418586 13.0675 1.58412 12.4397 2.66791L0 49.1094C0.17708 52.2202 1.47011 52.399 2.33345 52.6096C3.55992 51.9257 4.1865 53.1709 5.51543 49.5337L8.48528 38.5028L15.5822 38.5029" sodipodi:nodetypes="ccccccc"/><path id="shape14" transform="matrix(0.658534065495222 -0.148641280511839 0 0.755405884987268 180.121983681523 159.130215744256)" fill="none" stroke="#000000" stroke-width="3.84" stroke-linecap="round" stroke-linejoin="round" d="M5.52001 0L0 22.2L6.16126 22.2075" sodipodi:nodetypes="ccc"/><path id="shape011" transform="matrix(-0.658534065495222 0.148641280511839 0 0.755405884987268 194.414397910977 148.393264574443)" fill="none" stroke="#000000" stroke-width="3.84" stroke-linecap="round" stroke-linejoin="round" d="M15.5917 0.000823498C14.119 -0.0418586 13.0675 1.58412 12.4397 2.66791L0 49.1094C0.17708 52.2202 1.47011 52.399 2.33345 52.6096C3.55992 51.9257 4.1865 53.1709 5.51543 49.5337L8.48528 38.5028L15.5822 38.5029" sodipodi:nodetypes="ccccccc"/><path id="shape11" transform="matrix(-0.658534065495222 0.148641280511839 0 0.755405884987268 187.57080319595 157.335591574905)" fill="none" stroke="#000000" stroke-width="3.84" stroke-linecap="round" stroke-linejoin="round" d="M5.64121 0L0 22.35L6.16126 22.3575" sodipodi:nodetypes="ccc"/><path id="shape021" transform="matrix(-0.658534065495222 0.148641280511839 0 0.755405884987268 170.047608509479 154.317955784373)" fill="none" stroke="#000000" stroke-width="3.84" stroke-linecap="round" stroke-linejoin="bevel" d="M6.2435 38.3906L5.95961 5.70707C6.14814 0.315352 3.28065 0.0744879 2.94932 0C1.32519 0.418811 -0.13276 1.21127 0.0168158 5.70707L0.0168158 45.0045C-0.359783 54.4732 5.703 52.6025 6.78931 50.2632" sodipodi:nodetypes="cccccc"/><path id="shape031" transform="matrix(0.658534065495222 -0.148641280511839 0 -0.755405884987268 150.081996679937 197.925293036963)" fill="none" stroke="#000000" stroke-width="3.84" stroke-linecap="round" stroke-linejoin="bevel" d="M6.25813 36.0806L5.97424 5.70707C6.16277 0.315352 3.29528 0.0744879 2.96395 0C1.33982 0.418811 -0.118131 1.21127 0.0314455 5.70707L0.0314455 45.0045C-0.450912 51.8061 4.74751 51.9823 6.60768 49.5862" sodipodi:nodetypes="cccccc"/><path id="shape12" transform="matrix(0.658534065495222 -0.148641280511839 0 0.755405884987268 154.223828318193 169.756367006578)" fill="none" stroke="#000000" stroke-width="3.84" stroke-linecap="round" stroke-linejoin="miter" stroke-miterlimit="1.91999995708466" d="M0 0L17.3295 34.7041" sodipodi:nodetypes="cc"/><path id="shape24" transform="matrix(0.658534065495222 -0.148641280511839 0 0.755405884987268 154.601013210471 159.727983091868)" fill="none" stroke="#000000" stroke-width="3.84" stroke-linecap="round" stroke-linejoin="miter" stroke-miterlimit="1.91999995708466" d="M0 0L16.9281 35.5003" sodipodi:nodetypes="cc"/><path id="shape041" transform="matrix(0.658534065495222 -0.148641280511839 0 0.755405884987268 126.190947594688 164.217079579052)" fill="none" stroke="#000000" stroke-width="3.84" stroke-linecap="round" stroke-linejoin="bevel" d="M14.0475 45.2591C9.79887 45.3095 6.30082 43.8219 6.23039 32.0008L5.95338 5.70707C6.14191 0.315352 3.27442 0.0744879 2.94309 0C1.31897 0.418811 -0.138988 1.21127 0.0105881 5.70707L0.0105881 36.1374C0.896787 49.0851 7.47916 51.504 14.3391 51.5753" sodipodi:nodetypes="ccccccc"/><path id="shape051" transform="matrix(-0.658534065495222 0.148641280511839 0 0.755405884987268 144.459457046548 160.093595646711)" fill="none" stroke="#000000" stroke-width="3.84" stroke-linecap="round" stroke-linejoin="bevel" d="M13.2164 45.2591C8.74972 45.4346 6.03509 41.7591 6.23728 32.4251L5.95338 5.70707C6.14191 0.315352 3.27442 0.0744879 2.94309 0C1.31897 0.418811 -0.138988 1.21127 0.0105881 5.70707L0.0105881 36.1374C0.596787 48.1851 6.86059 51.4443 13.5706 51.5532" sodipodi:nodetypes="ccccccc"/><path id="shape061" transform="matrix(0.675671208434785 0.163281418819173 0 0.75045371901719 92.1244160715474 161.422330902058)" fill="none" stroke="#000000" stroke-width="4.08" stroke-linecap="round" stroke-linejoin="round" d="M34.0258 40.95C16.7911 62.9677 -15.525 34.5633 8.6758 0C3.81607 29.9105 12.2661 43.5605 34.0258 40.95" sodipodi:nodetypes="ccc"/><ellipse id="shape0111" transform="matrix(0.675671208434785 0.163281418819173 0 0.675672962092925 66.0811887420627 155.212462022068)" rx="16.32" ry="27.84" cx="16.32" cy="27.84" fill="none" stroke="#000000" stroke-width="4.08" stroke-linecap="square" stroke-linejoin="bevel"/><path id="shape111" transform="matrix(0.675671208434785 0.163281418819173 0 0.730617819933455 77.2699207479022 143.103842772541)" fill="none" stroke="#000000" stroke-width="4.08" stroke-linecap="round" stroke-linejoin="miter" stroke-miterlimit="1.91999995708466" d="M0 11.9252L0 0" sodipodi:nodetypes="cc"/><path id="shape21" transform="matrix(0.675671208434785 0.163281418819173 0 0.730617819933455 63.9423052741275 149.746630111553)" fill="none" stroke="#000000" stroke-width="4.08" stroke-linecap="round" stroke-linejoin="miter" stroke-miterlimit="1.91999995708466" d="M5.4 5.4L0 0" sodipodi:nodetypes="cc"/><path id="shape33" transform="matrix(0.674875690391526 0.127645830655752 0.0327778038661097 0.737678630876699 65.9409048969149 137.308602872728)" fill="none" stroke="#000000" stroke-width="4.08" stroke-linecap="round" stroke-linejoin="miter" stroke-miterlimit="1.91999995708466" d="M8.25 18.675L0 0" sodipodi:nodetypes="cc"/><path id="shape43" transform="matrix(-0.675671208434785 -0.163281418819173 0 0.730617819933455 90.3587430219218 156.130376202496)" fill="none" stroke="#000000" stroke-width="4.08" stroke-linecap="round" stroke-linejoin="miter" stroke-miterlimit="1.91999995708466" d="M5.4 5.4L0 0" sodipodi:nodetypes="cc"/><path id="shape53" transform="matrix(-0.674875690391526 -0.198532520228747 -0.0327778038661097 0.721836587426504 88.3601433991344 142.726393398341)" fill="none" stroke="#000000" stroke-width="4.08" stroke-linecap="round" stroke-linejoin="miter" stroke-miterlimit="1.91999995708466" d="M8.25 18.675L0 0" sodipodi:nodetypes="cc"/><path id="shape0111" transform="matrix(0.715750652593997 0.172966941046707 0 0.789752230606173 44.1722650896708 149.619965772885)" fill="none" stroke="#000000" stroke-width="4.08" stroke-linecap="round" stroke-linejoin="bevel" d="M8.83643 25.8762C-3.09064 21.958 -2.71515 4.20411 8.58143 0.6312C11.0815 -0.299401 13.5815 -0.0462562 16.0815 0.4062C20.2615 1.4548 25.3397 6.22381 24.7065 14.3562C24.406 16.081 23.5057 16.0808 22.5315 16.7562C21.6065 16.2476 20.2116 15.8929 19.7419 13.7119C18.2221 9.36336 16.7243 6.50541 12.611 6.19837C5.61808 5.94185 3.10343 18.3415 12.7065 21.0762C19.5678 22.0673 24.7316 27.9148 25.1015 31.0094" sodipodi:nodetypes="ccccccccc"/><path id="shape0211" transform="matrix(-0.715750652593997 -0.172966941046707 0 -0.789752230606173 62.4728229561466 191.992719870438)" fill="none" stroke="#000000" stroke-width="4.08" stroke-linecap="square" stroke-linejoin="bevel" d="M8.6216 25.727C-3.26396 21.4849 -2.45619 5.1913 8.55693 0.6312C11.0569 -0.299401 13.5569 -0.0462562 16.0569 0.4062C19.8864 1.3861 24.9985 6.16175 24.6819 14.3562C24.3814 16.081 23.4811 16.0808 22.5069 16.7562C21.5819 16.2476 19.9464 15.7973 19.4768 13.6164C18.1694 8.57396 16.6997 6.50541 12.5864 6.19837C5.16877 5.24801 3.07892 18.3415 12.6819 21.0762C19.5433 22.0673 24.0822 26.7055 24.8769 30.4245" sodipodi:nodetypes="ccccccccc"/><path id="shape071" transform="matrix(0.655196755325409 -0.148876877348054 0 0.756603205381364 172.240286824745 153.947482821604)" fill="none" stroke="#000000" stroke-width="3.84" stroke-linecap="round" stroke-linejoin="round" d="M15.9826 0.000399024C14.5099 -0.0422831 12.9061 3.35114 12.2783 4.43493L0 50.283C0.17708 53.3938 1.47011 53.5726 2.33345 53.7832C3.55992 53.0993 5.15725 53.8989 6.48618 50.2617C7.47613 46.5847 8.46608 42.9078 9.45603 39.2308L15.5822 39.6765" sodipodi:nodetypes="ccccccc"/><path id="shape012" transform="matrix(-0.655196755325409 0.148876877348054 0 0.756603205381364 189.915013321074 179.950642667021)" fill="none" stroke="#000000" stroke-width="3.84" stroke-linecap="round" stroke-linejoin="round" d="M0 12.2381L3.36595 0L10.4629 0.0001" sodipodi:nodetypes="ccc"/><path id="shape1111" transform="matrix(-0.655196755325409 0.148876877348054 0 0.756603205381364 186.541005446831 161.482290100552)" fill="none" stroke="#000000" stroke-width="3.84" stroke-linecap="round" stroke-linejoin="round" d="M4.93747 0L0 16.8828" sodipodi:nodetypes="cc"/><path id="shape022" transform="matrix(-0.655196755325409 0.148876877348054 0 0.756603205381364 164.935158262472 180.969843330687)" fill="none" stroke="#000000" stroke-width="3.84" stroke-linecap="round" stroke-linejoin="bevel" d="M0 0" sodipodi:nodetypes="c"/><path id="shape0311" transform="matrix(0.655196755325409 -0.148876877348054 0 -0.756603205381364 149.138039175042 198.485730241909)" fill="none" stroke="#000000" stroke-width="3.84" stroke-linecap="round" stroke-linejoin="bevel" d="M5.757 0.57975C4.78881 0.0250555 0.418306 -1.39189 0.067175 4.13785L0.067175 43.4353C-0.415182 50.2369 1.85928 48.4995 1.8307 49.3002" sodipodi:nodetypes="cccc"/><path id="shape121" transform="matrix(0.655196755325409 -0.148876877348054 0 0.756603205381364 154.63634843465 174.075546340269)" fill="none" stroke="#000000" stroke-width="3.84" stroke-linecap="round" stroke-linejoin="miter" stroke-miterlimit="1.91999995708466" d="M0 0L15.3025 31.1129" sodipodi:nodetypes="cc"/><path id="shape0411" transform="matrix(0.65519675532541 -0.148876877348054 0 0.756603205381365 125.350522169963 167.026664851379)" fill="none" stroke="#000000" stroke-width="3.84" stroke-linecap="round" stroke-linejoin="bevel" d="M1.47205 0C-0.152065 0.418811 -0.0764841 -0.257549 0.073092 4.23825L0.073092 34.6686C0.481647 40.6377 2.97861 46.068 7.90148 47.7825C16.3747 51.6948 23.4202 46.4218 24.6578 44.7336" sodipodi:nodetypes="ccccc"/><path id="shape0511" transform="matrix(-0.655196755325409 0.148876877348054 0 0.756603205381364 139.666767929514 163.815011465377)" fill="none" stroke="#000000" stroke-width="3.84" stroke-linecap="round" stroke-linejoin="bevel" d="M0.2839 38.1503L0 0" sodipodi:nodetypes="cc"/><path id="shape013" transform="matrix(1 0 0 1.01049350807723 165.073251103851 158.833867987819)" fill="none" stroke="#000000" stroke-width="3.12" stroke-linecap="round" stroke-linejoin="miter" stroke-miterlimit="1.91999995708466" d="M0 0L0 19.2046" sodipodi:nodetypes="cc"/><path id="shape1211" transform="matrix(1.02340763934999 0.00480515157848133 -0.00448740062573634 0.955732614506612 190.545555093224 188.117689584422)" fill="none" stroke="#000000" stroke-width="2.64" stroke-linecap="round" stroke-linejoin="miter" stroke-miterlimit="1.91999995708466" d="M0 1.50078C1.53164 1.80358 2.37409 1.01059 3.07969 0" sodipodi:nodetypes="cc"/><path id="shape22" transform="translate(179.063354505985, 180.694068264178)" fill="none" stroke="#000000" stroke-width="2.64" stroke-linecap="square" stroke-linejoin="miter" stroke-miterlimit="2" d="M9.06864 0L0 2.22739" sodipodi:nodetypes="cc"/><path id="shape31" transform="matrix(1.32949856824123 -0.146195625399106 0.119146162606702 1.08351157679726 164.97275591155 155.430628564142)" fill="none" stroke="#000000" stroke-width="2.64" stroke-linecap="round" stroke-linejoin="miter" stroke-miterlimit="1.91999995708466" d="M2.05329 0.0411189C1.42004 -0.2367 0.39826 0.918831 0 2.73468" sodipodi:nodetypes="cc"/><path id="shape112" transform="matrix(0.999999984002641 0 0 0.999999984002641 164.867706977896 194.071901534842)" fill="none" stroke="#000000" stroke-width="2.64" stroke-linecap="round" stroke-linejoin="miter" stroke-miterlimit="1.91999995708466" d="M0 1.50078L3.07969 0" sodipodi:nodetypes="cc"/><path id="shape122" transform="matrix(0.949367431628209 -0.314167865589328 0.314167865589328 0.949367431628209 149.436418580924 160.260276042173)" fill="none" stroke="#000000" stroke-width="2.64" stroke-linecap="round" stroke-linejoin="miter" stroke-miterlimit="1.91999995708466" d="M0 1.14778L1.64898 0" sodipodi:nodetypes="cc"/><path id="shape13" transform="matrix(0.903313145637299 -0.428981623653948 0.428981623653948 0.903313145637299 139.471071974645 162.492424191269)" fill="none" stroke="#000000" stroke-width="2.64" stroke-linecap="round" stroke-linejoin="miter" stroke-miterlimit="1.91999995708466" d="M0 0.874376L2.07451 0" sodipodi:nodetypes="cc"/><path id="shape14" transform="matrix(0.903313153388484 -0.42898162733497 0.42898162733497 0.903313153388484 125.132620597436 165.660163345055)" fill="none" stroke="#000000" stroke-width="2.64" stroke-linecap="round" stroke-linejoin="miter" stroke-miterlimit="1.91999995708466" d="M0 1.3199L1.91843 0" sodipodi:nodetypes="cc"/><path id="shape081" transform="matrix(0.654526121092186 0.163540220314653 0 0.751643190214678 91.7404159301541 162.745517687618)" fill="none" stroke="#000000" stroke-width="4.08" stroke-linecap="round" stroke-linejoin="round" d="M36.2353 40.95C18.555 63.8073 -18.3226 25.7644 10.8853 0C11.2156 17.2388 6.05938 36.6417 36.2353 40.95" sodipodi:nodetypes="ccc"/><path id="shape014" transform="matrix(0.654526121092185 0.163540220314653 0 0.676743905586127 66.2202913401216 155.219318537958)" fill="none" stroke="#000000" stroke-width="4.08" stroke-linecap="square" stroke-linejoin="bevel" d="M35.2955 29.6628C35.2955 14.2872 25.3429 0 16.3296 0C7.31635 0 0.00964165 12.4644 0.00964165 27.84C-0.355593 43.6571 9.72194 57.7933 18.9755 57.5028C27.9888 57.5028 35.2955 45.0384 35.2955 29.6628Z" sodipodi:nodetypes="ccccc"/><path id="shape131" transform="matrix(0.654526121092185 0.163540220314653 0 0.731775851176634 77.8515042341687 143.363069280347)" fill="none" stroke="#000000" stroke-width="4.08" stroke-linecap="round" stroke-linejoin="miter" stroke-miterlimit="1.91999995708466" d="M0 11.9252L0 0" sodipodi:nodetypes="cc"/><path id="shape23" transform="matrix(0.654526121092185 0.163540220314653 0 0.731775851176634 65.4622067122499 150.352000994377)" fill="none" stroke="#000000" stroke-width="4.08" stroke-linecap="round" stroke-linejoin="miter" stroke-miterlimit="1.91999995708466" d="M5.4 5.4L0 0" sodipodi:nodetypes="cc"/><path id="shape32" transform="matrix(0.653755498735316 0.127848149646513 0.0317520245861948 0.738847853524538 67.0800622225833 137.735160415943)" fill="none" stroke="#000000" stroke-width="4.08" stroke-linecap="round" stroke-linejoin="miter" stroke-miterlimit="1.91999995708466" d="M8.25 18.675L0 0" sodipodi:nodetypes="cc"/><path id="shape41" transform="matrix(-0.654526121092185 -0.163540220314653 0 0.731775851176634 90.7364107083601 156.445865331052)" fill="none" stroke="#000000" stroke-width="4.08" stroke-linecap="round" stroke-linejoin="miter" stroke-miterlimit="1.91999995708466" d="M5.4 5.4L0 0" sodipodi:nodetypes="cc"/><path id="shape51" transform="matrix(-0.653755498735316 -0.198847194816389 -0.0317520245861948 0.722980700392139 88.8533901518175 142.983137187016)" fill="none" stroke="#000000" stroke-width="4.08" stroke-linecap="round" stroke-linejoin="miter" stroke-miterlimit="1.91999995708466" d="M8.25 18.675L0 0" sodipodi:nodetypes="cc"/><path id="shape01111" transform="matrix(0.693351281604545 0.173241094121412 0 0.791003990052029 50.757894185047 151.001119072606)" fill="none" stroke="#000000" stroke-width="4.08" stroke-linecap="round" stroke-linejoin="bevel" d="M0 0.683572C2.50007 -0.247029 6.60971 -0.0946137 9.10971 0.357843C13.2897 1.40644 19.5378 7.8544 18.9046 15.9868C18.6041 17.7116 17.7038 17.7114 16.7296 18.3868C15.7709 18.2995 12.0459 18.2664 11.6422 15.2616C10.1224 10.9131 9.19166 9.55804 6.80908 7.82896C-0.18384 7.57244 -2.10383 19.1612 7.49924 21.8959C12.6839 23.8705 18.9297 29.5454 19.2996 32.64" sodipodi:nodetypes="cccccccc"/><path id="shape023" transform="matrix(-0.693351281604545 -0.173241094121412 0 -0.791003990052029 64.4629758324308 193.725711128121)" fill="none" stroke="#000000" stroke-width="4.08" stroke-linecap="square" stroke-linejoin="bevel" d="M8.6216 25.727C-3.26396 21.4849 -2.45619 5.1913 8.55693 0.6312C11.0569 -0.299401 13.5569 -0.0462562 16.0569 0.4062C19.643 1.23612 30.0625 5.33766 27.79 17.0929C27.4895 18.8177 24.2667 19.2396 23.7515 18.6747C22.1834 16.9788 22.1291 16.9199 21.6557 14.7355C20.3483 9.6931 17.9978 6.98279 15.4143 7.8157C9.15677 8.15798 5.99565 19.3607 15.1878 22.0948" sodipodi:nodetypes="cccccccc"/><path id="shape113" transform="matrix(0.00552674646036131 0.771352421239815 -0.99997417226642 0.00716482319215778 72.8838089364407 151.636347972998)" fill="none" stroke="#000000" stroke-width="2.64" stroke-linecap="round" stroke-linejoin="miter" stroke-miterlimit="1.91999995708466" d="M0 1.02139L1.88325 0" sodipodi:nodetypes="cc"/><path id="shape123" transform="matrix(0.366206000007885 0.930533590567512 -0.930533590567512 0.366206000007885 66.3838719162021 136.776246195459)" fill="none" stroke="#000000" stroke-width="2.64" stroke-linecap="round" stroke-linejoin="miter" stroke-miterlimit="1.91999995708466" d="M0 0.49202L0.43659 0" sodipodi:nodetypes="cc"/><path id="shape1311" transform="matrix(0.3619054086901 0.932214569641647 -0.932214569641647 0.3619054086901 64.5352685238311 149.093090365658)" fill="none" stroke="#000000" stroke-width="2.64" stroke-linecap="round" stroke-linejoin="miter" stroke-miterlimit="1.91999995708466" d="M0 0.592563L0.731501 0" sodipodi:nodetypes="cc"/><path id="shape141" transform="matrix(0.0996870425492155 0.725866959529696 -0.990700661404572 0.13605801681752 68.567070173536 154.366345897305)" fill="none" stroke="#000000" stroke-width="2.64" stroke-linecap="round" stroke-linejoin="miter" stroke-miterlimit="1.91999995708466" d="M0 1.02139L1.88325 0" sodipodi:nodetypes="cc"/><path id="shape15" transform="matrix(-0.113099480869347 0.993583459944283 -0.993583459944283 -0.113099480869347 98.9122399188742 162.997580853431)" fill="none" stroke="#000000" stroke-width="2.64" stroke-linecap="round" stroke-linejoin="miter" stroke-miterlimit="1.91999995708466" d="M0 0.889735L1.16474 0" sodipodi:nodetypes="cc"/><path id="shape16" transform="matrix(-0.216954127817591 0.976181562791801 -0.976181562791801 -0.216954127817591 115.997051798397 197.79355606356)" fill="none" stroke="#000000" stroke-width="2.64" stroke-linecap="round" stroke-linejoin="miter" stroke-miterlimit="1.91999995708466" d="M0 1.02139L1.47356 0" sodipodi:nodetypes="cc"/><path id="shape17" transform="matrix(0.136058025636227 0.990700725617611 -0.990700725617611 0.136058025636227 77.6093267853022 142.814408306389)" fill="none" stroke="#000000" stroke-width="2.64" stroke-linecap="round" stroke-linejoin="miter" stroke-miterlimit="1.91999995708466" d="M0 0.327753L0.656594 0" sodipodi:nodetypes="cc"/><path id="shape18" transform="matrix(0.136058027153662 0.990700736666752 -0.990700736666752 0.136058027153662 77.8335408578694 151.76520111927)" fill="none" stroke="#000000" stroke-width="2.64" stroke-linecap="round" stroke-linejoin="miter" stroke-miterlimit="1.91999995708466" d="M0 0.593329L0.808161 0" sodipodi:nodetypes="cc"/><path id="shape091" transform="matrix(-1 0 0 1 202.889998574466 108.87713516099)" fill="none" stroke="#000000" stroke-width="3.84" stroke-linecap="square" stroke-linejoin="miter" stroke-miterlimit="2" d="M82.89 21.2929C83.328 4.49645 30.5066 -5.43001 0 3.14285" sodipodi:nodetypes="cc"/><path id="shape010" transform="matrix(-1 0 0 1 217.740003681483 115.665001955629)" fill="none" stroke="#000000" stroke-width="3.84" stroke-linecap="round" stroke-linejoin="miter" stroke-miterlimit="1.91999995708466" d="M24.4877 90.0394L0 0" sodipodi:nodetypes="cc"/><path id="shape0112" transform="matrix(-1 0 0 1 216.986370775941 111.390001883349)" fill="none" stroke="#000000" stroke-width="3.84" stroke-linecap="round" stroke-linejoin="miter" stroke-miterlimit="1.91999995708466" d="M0 3.60677L4.30887 0" sodipodi:nodetypes="cc"/><path id="shape0121" transform="matrix(-0.96933759004357 0 0 1 192.584321428265 205.874140165528)" fill="none" stroke="#000000" stroke-width="3.84" stroke-linecap="round" stroke-linejoin="miter" stroke-miterlimit="1.91999995708466" d="M0 0C23.3852 4.35174 44.6774 11.6746 66.9332 21.6799" sodipodi:nodetypes="cc"/><path id="shape0131" transform="matrix(-1 0 0 1 211.852511374694 111.480005985537)" fill="none" stroke="#000000" stroke-width="3.84" stroke-linecap="round" stroke-linejoin="miter" stroke-miterlimit="1.91999995708466" d="M91.8525 21.96C61.4539 12.2736 28.3987 4.40643 0 0" sodipodi:nodetypes="cc"/><path id="shape0141" transform="translate(120, 145.352865019503)" fill="none" stroke="#000000" stroke-width="3.84" stroke-linecap="round" stroke-linejoin="round" d="M0 74.8826L0 0" sodipodi:nodetypes="cc"/><path id="shape015" transform="translate(112.26027608776, 227.47979414722)" fill="none" stroke="#000000" stroke-width="3.84" stroke-linecap="round" stroke-linejoin="miter" stroke-miterlimit="1.91999995708466" d="M0 0C5.16307 1.66469 10.3249 1.65871 15.4856 0" sodipodi:nodetypes="cc"/><path id="shape0151" transform="translate(28.1587485808685, 118.200005985537)" fill="none" stroke="#000000" stroke-width="3.84" stroke-linecap="round" stroke-linejoin="miter" stroke-miterlimit="1.91999995708466" d="M82.2242 19.7495C51.8256 10.0631 28.3987 4.40643 0 0" sodipodi:nodetypes="cc"/><path id="shape016" transform="matrix(-1 0 0 1 211.841251419131 118.200005985537)" fill="none" stroke="#000000" stroke-width="3.84" stroke-linecap="round" stroke-linejoin="miter" stroke-miterlimit="1.91999995708466" d="M82.2242 19.7495C51.8256 10.0631 28.3987 4.40643 0 0" sodipodi:nodetypes="cc"/><path id="shape017" transform="matrix(0.993708804367677 -0.111994696848387 0.111994696848387 0.993708804367677 195.374212058698 78.8303095172198)" fill="none" stroke="#000000" stroke-width="3.36" stroke-linecap="round" stroke-linejoin="round" d="M13.867 12.9458C11.3839 12.6342 10.7438 13.6127 9.57136 14.2186C7.50719 17.7946 9.19055 20.9762 9.57136 24.2949C13.6323 26.0587 17.3176 25.5501 20.8144 24.1888C22.7756 19.4326 25.1119 14.7573 20.0719 8.49105C16.9038 8.03188 14.0002 8.76325 11.1093 9.55171C11.5378 6.66016 11.1343 1.0777 7.8531 0.249721C4.71176 -0.779354 3.67697 1.63009 2.76193 2.79531C5.23087 6.47606 4.94921 11.8472 3.89683 12.3519L1.29821 11.8852C-1.36558 19.0634 0.717368 21.5591 1.82854 24.507C3.21036 24.728 4.54498 24.8074 5.64691 24.1888C7.88649 25.178 8.7079 24.6073 9.57136 24.0828" sodipodi:nodetypes="ccccccccccccc"/><path id="shape1411" transform="matrix(-0.852378446966634 -0.12330661616033 -0.12330661616033 0.852378446966634 45.1713624826589 73.101359306647)" fill="none" stroke="#000000" stroke-width="3.6" stroke-linecap="round" stroke-linejoin="round" d="M13.867 12.9458C11.3839 12.6342 10.7438 13.6127 9.57136 14.2186C7.50719 17.7946 9.19055 20.9762 9.57136 24.2949C13.6323 26.0587 17.3176 25.5501 20.8144 24.1888C22.7756 19.4326 25.1119 14.7573 20.0719 8.49105C16.9038 8.03188 14.0002 8.76325 11.1093 9.55171C11.5378 6.66016 11.1343 1.0777 7.8531 0.249721C4.71176 -0.779354 3.67697 1.63009 2.76193 2.79531C5.23087 6.47606 4.94921 11.8472 3.89683 12.3519L1.29821 11.8852C-1.36558 19.0634 0.717368 21.5591 1.82854 24.507C3.21036 24.728 4.54498 24.8074 5.64691 24.1888C7.88649 25.178 8.7079 24.6073 9.57136 24.0828" sodipodi:nodetypes="ccccccccccccc"/><path id="shape24" transform="matrix(-0.650634743802627 -0.225552573429875 -0.225552573429875 0.650634743802627 85.0517892946668 27.4688270697098)" fill="none" stroke="#000000" stroke-width="3.6" stroke-linecap="round" stroke-linejoin="round" d="M13.867 12.9458C11.3839 12.6342 10.7438 13.6127 9.57136 14.2186C7.50719 17.7946 9.19055 20.9762 9.57136 24.2949C13.6323 26.0587 17.3176 25.5501 20.8144 24.1888C22.7756 19.4326 25.1119 14.7573 20.0719 8.49105C16.9038 8.03188 14.0002 8.76325 11.1093 9.55171C11.5378 6.66016 11.1343 1.0777 7.8531 0.249721C4.71176 -0.779354 3.67697 1.63009 2.76193 2.79531C5.23087 6.47606 4.94921 11.8472 3.89683 12.3519L1.29821 11.8852C-1.36558 19.0634 0.717368 21.5591 1.82854 24.507C3.21036 24.728 4.54498 24.8074 5.64691 24.1888C7.88649 25.178 8.7079 24.6073 9.57136 24.0828" sodipodi:nodetypes="ccccccccccccc"/><path id="shape25" transform="matrix(0.617984429949694 0.0767439891224423 -0.0835708072871197 0.672957690788889 158.437385521996 18.7207209197612)" fill="none" stroke="#000000" stroke-width="5.28" stroke-linecap="round" stroke-linejoin="bevel" d="M18.2335 27.641C12.1685 21.366 -0.796515 18.391 0.0384864 8.816C-0.020503 1.80774 10.7667 -5.77313 18.3235 6.55433" sodipodi:nodetypes="ccc"/><path id="shape33" transform="matrix(-0.617984429949694 -0.0767439891224423 -0.0835708072871197 0.672957690788889 181.092865940054 21.3911206525977)" fill="none" stroke="#000000" stroke-width="5.28" stroke-linecap="round" stroke-linejoin="bevel" d="M18.2335 27.8503C12.1685 21.5753 -0.796515 18.6003 0.0384864 9.02531C-0.020503 1.98011 10.5867 -6.02 18.1435 6.76364" sodipodi:nodetypes="ccc"/><path id="shape018" transform="matrix(0.20902615754793 0 0 0.226942393436065 148.125243130691 38.1667548270762)" fill="#6866b6" fill-rule="evenodd" stroke="#6866b6" stroke-width="3.12" stroke-linecap="square" stroke-linejoin="round" d="M28.2197 0C29.1331 19.0661 36.4709 25.2815 55.5442 29.2038C26.582 36.2009 32.3992 47.6687 28.3424 59.3358C26.7378 45.1782 24.6102 35.5513 0 29.3305C15.0279 26.1806 28.5524 24.4081 28.2197 0Z" sodipodi:nodetypes="ccccc"/><path id="shape151" transform="matrix(0.20902615754793 0 0 0.226942393436065 43.9684425402243 34.4970089658937)" fill="#ffe0c9" fill-rule="evenodd" stroke="#ffe0c9" stroke-width="3.12" stroke-linecap="square" stroke-linejoin="round" d="M22.7796 0C23.5169 17.5785 29.4401 23.3089 44.8365 26.9252C21.4576 33.3764 26.1533 43.9494 22.8786 54.7062C21.5833 41.6532 19.8659 32.7774 0 27.042C12.1308 24.1379 23.0481 22.5036 22.7796 0Z" sodipodi:nodetypes="ccccc"/><path id="shape26" transform="matrix(0.20902615754793 0 0 0.226942393436065 199.295327012927 55.8530280782997)" fill="#6866b6" fill-rule="evenodd" stroke="#6866b6" stroke-width="3.12" stroke-linecap="square" stroke-linejoin="round" d="M18.0529 0C18.6372 13.931 23.3314 18.4724 35.5331 21.3383C17.0052 26.4509 20.7266 34.8301 18.1314 43.3549C17.1049 33.0103 15.7438 25.9762 0 21.4309C9.61374 19.1294 18.2657 17.8342 18.0529 0Z" sodipodi:nodetypes="ccccc"/><path id="shape34" transform="matrix(0.20902615754793 0 0 0.226942393436065 102.867957389761 75.2818575797785)" fill="#ffe0c9" fill-rule="evenodd" stroke="#ffe0c9" stroke-width="3.12" stroke-linecap="square" stroke-linejoin="round" d="M9.98286 0C10.306 7.70356 12.9018 10.2148 19.649 11.7996C9.40352 14.6268 11.4614 19.2603 10.0263 23.9743C9.45862 18.254 8.70599 14.3643 0 11.8508C5.31619 10.5781 10.1006 9.86194 9.98286 0Z" sodipodi:nodetypes="ccccc"/><path id="shape0161" transform="matrix(0.209026154107672 0 0 0.226942389700933 30.753601994692 60.2434551610875)" fill="#ffe0c9" fill-rule="evenodd" stroke="#ffe0c9" stroke-width="3.12" stroke-linecap="square" stroke-linejoin="round" d="M9.98286 0C10.306 7.70356 12.9018 10.2148 19.649 11.7996C9.40352 14.6268 11.4614 19.2603 10.0263 23.9743C9.45862 18.254 8.70599 14.3643 0 11.8508C5.31619 10.5781 10.1006 9.86194 9.98286 0Z" sodipodi:nodetypes="ccccc"/><path id="shape01121" transform="matrix(0.209026152181509 0 0 0.226942387609672 186.677807896052 25.2257371925821)" fill="#6866b6" fill-rule="evenodd" stroke="#6866b6" stroke-width="3.12" stroke-linecap="square" stroke-linejoin="round" d="M9.98286 0C10.306 7.70356 12.9018 10.2148 19.649 11.7996C9.40352 14.6268 11.4614 19.2603 10.0263 23.9743C9.45862 18.254 8.70599 14.3643 0 11.8508C5.31619 10.5781 10.1006 9.86194 9.98286 0Z" sodipodi:nodetypes="ccccc"/><rect id="shape019" transform="translate(52.2600000192174, 71.76)" fill="none" stroke="#000000" stroke-width="3.84" stroke-linecap="round" stroke-linejoin="bevel" width="36" height="24.48" rx="0.794998595229401" ry="0.794998595229401"/><path id="shape020" transform="translate(66.3049901311167, 79.1892658049249)" fill="#000000" fill-rule="evenodd" stroke="#000000" stroke-width="3.84" stroke-linecap="butt" stroke-linejoin="round" d="M0 0C0.0212132 2.07889 0.0565685 5.54372 0.106066 10.3945L9.22774 5.3033L0 0" sodipodi:nodetypes="cccc"/><path id="shape0211" transform="matrix(0.99999999889588 -4.69919044575852e-05 4.69919044575852e-05 0.99999999889588 56.4675005979782 101.37087280771)" fill="none" stroke="#000000" stroke-width="3.84" stroke-linecap="round" stroke-linejoin="miter" stroke-miterlimit="1.91999995708466" d="M0 0L37.0163 0.0525037" sodipodi:nodetypes="cc"/><path id="shape161" transform="translate(93.5925029428853, 76.4371973745296)" fill="none" stroke="#000000" stroke-width="3.84" stroke-linecap="round" stroke-linejoin="miter" stroke-miterlimit="1.91999995708466" d="M0 24.7078L0 0" sodipodi:nodetypes="cc"/><path id="shape0221" transform="matrix(0.935983438092229 -4.39836443452753e-05 4.69919044575852e-05 0.99999999889588 66.8700026476297 106.309229950817)" fill="none" stroke="#000000" stroke-width="3.84" stroke-linecap="round" stroke-linejoin="miter" stroke-miterlimit="1.91999995708466" d="M0 0L33.941 0.0619755" sodipodi:nodetypes="cc"/><path id="shape171" transform="matrix(1 0 0 0.880429482970994 98.5800002140354 84.8918060870955)" fill="none" stroke="#000000" stroke-width="3.84" stroke-linecap="round" stroke-linejoin="miter" stroke-miterlimit="1.91999995708466" d="M0 24.4683L0.00266778 0" sodipodi:nodetypes="cc"/><path id="shape0231" transform="matrix(0.935983438092229 -4.39836443452753e-05 4.69919044575852e-05 0.99999999889588 88.710032285021 111.109041041836)" fill="none" stroke="#000000" stroke-width="3.84" stroke-linecap="round" stroke-linejoin="miter" stroke-miterlimit="1.91999995708466" d="M0 0L15.7355 0.0613636" sodipodi:nodetypes="cc"/><path id="shape181" transform="matrix(1 0 0 0.880429482970994 103.380000214035 94.5600035730488)" fill="none" stroke="#000000" stroke-width="3.84" stroke-linecap="round" stroke-linejoin="miter" stroke-miterlimit="1.91999995708466" d="M0 18.9389L0.00723385 0" sodipodi:nodetypes="cc"/><ellipse id="shape024" transform="translate(100.571249997928, 11.52)" rx="19.44" ry="19.32" cx="19.44" cy="19.32" fill="none" stroke="#000000" stroke-width="3.84" stroke-linecap="square" stroke-linejoin="bevel"/><path id="shape025" transform="translate(134.265008867448, 26.9100016445084)" fill="none" stroke="#000000" stroke-width="3.6" stroke-linecap="round" stroke-linejoin="miter" stroke-miterlimit="1.91999995708466" d="M9.675 0C11.4681 10.7688 6.53116 17.5095 0 23.325" sodipodi:nodetypes="cc"/><path id="shape026" transform="matrix(0.999910374343848 0.0133881768566768 -0.0133881768566768 0.999910374343848 121.457803281144 48.2419456130853)" fill="none" stroke="#000000" stroke-width="3.84" stroke-linecap="square" stroke-linejoin="miter" stroke-miterlimit="2" d="M9.91197 0C29.4831 16.557 21.6683 31.7642 10.4137 44.6638C-4.02016 59.0141 0.135724 71.9776 2.08563 73.5667" sodipodi:nodetypes="ccc"/><path id="shape0171" transform="matrix(0.999910374343848 0.0133881768566768 -0.0133881768566768 0.999910374343848 101.59859270473 36.9017585061135)" fill="none" stroke="#000000" stroke-width="3.84" stroke-linecap="round" stroke-linejoin="miter" stroke-miterlimit="1.91999995708466" d="M0 0C5.12693 15.483 26.5789 18.1709 28.0309 36.2679C28.1773 46.5338 21.6238 51.4378 17.88 55.714C7.53947 67.8672 16.4868 86.2578 18.3926 87.8458" sodipodi:nodetypes="cccc"/><path id="shape027" transform="matrix(0.989199100234883 0.146578102370377 -0.146578102370377 0.989199100234883 123.273138296802 51.7590128621155)" fill="none" stroke="#000000" stroke-width="3.36" stroke-linecap="square" stroke-linejoin="miter" stroke-miterlimit="2" d="M0 4.2C3.88211 2.54932 7.78721 0.828463 11.4 0" sodipodi:nodetypes="cc"/><path id="shape19" transform="translate(115.771059625472, 117.173105566739)" fill="none" stroke="#000000" stroke-width="3.36" stroke-linecap="square" stroke-linejoin="miter" stroke-miterlimit="2" d="M0 0.295011C1.40965 -0.0706744 2.81929 -0.0626972 4.22894 0.135912" sodipodi:nodetypes="cc"/><path id="shape27" transform="translate(114.840007756829, 105.135007101308)" fill="none" stroke="#000000" stroke-width="3.36" stroke-linecap="square" stroke-linejoin="miter" stroke-miterlimit="2" d="M0 0C2.1997 0.151218 4.22225 1.011 6.225 1.95" sodipodi:nodetypes="cc"/><path id="shape35" transform="translate(120, 93.6350799989217)" fill="none" stroke="#000000" stroke-width="3.36" stroke-linecap="square" stroke-linejoin="miter" stroke-miterlimit="2" d="M0 0C2.59864 0.337556 4.74653 1.42637 6.74889 2.75772" sodipodi:nodetypes="cc"/><path id="shape42" transform="matrix(0.99663537948063 -0.0819629206867423 0.0819629206867423 0.99663537948063 127.530008085457 82.6800052419474)" fill="none" stroke="#000000" stroke-width="3.36" stroke-linecap="square" stroke-linejoin="miter" stroke-miterlimit="2" d="M0 0C3.26372 0.684021 6.44005 1.5433 9.22774 3.18198" sodipodi:nodetypes="cc"/><path id="shape52" transform="matrix(0.998232483908038 0.0594298584113358 -0.0594298584113358 0.998232483908038 128.75505102495 67.3089815002732)" fill="none" stroke="#000000" stroke-width="3.36" stroke-linecap="square" stroke-linejoin="miter" stroke-miterlimit="2" d="M0 2.70757C4.62864 1.02879 9.28977 -0.104039 14.025 0.00757178" sodipodi:nodetypes="cc"/><circle id="shape028" transform="translate(116.4, 39.1124999696536)" r="3.6" cx="3.6" cy="3.6" fill="#000000" fill-rule="evenodd" stroke="#000000" stroke-width="3.6" stroke-linecap="square" stroke-linejoin="bevel"/><circle id="shape110" transform="translate(106.350244543868, 33.3451601080807)" r="3.6" cx="3.6" cy="3.6" fill="#000000" fill-rule="evenodd" stroke="#000000" stroke-width="3.6" stroke-linecap="square" stroke-linejoin="bevel"/><circle id="shape28" transform="translate(126.58233770296, 33.4711135015256)" r="3.6" cx="3.6" cy="3.6" fill="#000000" fill-rule="evenodd" stroke="#000000" stroke-width="3.6" stroke-linecap="square" stroke-linejoin="bevel"/><circle id="shape36" transform="matrix(1 0 0 -1 116.4 22.7268746750063)" r="3.6" cx="3.6" cy="3.6" fill="#000000" fill-rule="evenodd" stroke="#000000" stroke-width="3.6" stroke-linecap="square" stroke-linejoin="bevel"/><circle id="shape43" transform="matrix(1 0 0 -1 106.359619543829 28.4311402677289)" r="3.6" cx="3.6" cy="3.6" fill="#000000" fill-rule="evenodd" stroke="#000000" stroke-width="3.6" stroke-linecap="square" stroke-linejoin="bevel"/><circle id="shape53" transform="matrix(1 0 0 -1 126.572962702802 28.385873765133)" r="3.6" cx="3.6" cy="3.6" fill="#000000" fill-rule="evenodd" stroke="#000000" stroke-width="3.6" stroke-linecap="square" stroke-linejoin="bevel"/><path id="shape62" transform="translate(119.28, 30)" sodipodi:type="arc" sodipodi:rx="0.719999999999999" sodipodi:ry="0.84" sodipodi:cx="0.719999999999999" sodipodi:cy="0.84" sodipodi:start="6.28318530717959" sodipodi:end="6.28318530717958" sodipodi:open="true" d="M1.44 0.84C1.44 0.376081 1.11765 -1.72278e-15 0.72 0C0.322355 1.72278e-15 -3.04484e-16 0.376081 0 0.84C3.04484e-16 1.30392 0.322355 1.68 0.72 1.68C1.11765 1.68 1.44 1.30392 1.44 0.84Z" fill="#272727" fill-rule="evenodd" stroke="#000000" stroke-width="3.6" stroke-linecap="square" stroke-linejoin="bevel"/><path id="shape7" transform="translate(119.546258094953, 30.5025020654459)" fill="none" stroke="#000000" stroke-width="2.88" stroke-linecap="square" stroke-linejoin="miter" stroke-miterlimit="2" d="M0 0L0.453742 0.375" sodipodi:nodetypes="cc"/><path id="shape029" transform="translate(140.983900683895, 103.965000860092)" fill="none" stroke="#000000" stroke-width="3.6" stroke-linecap="round" stroke-linejoin="miter" stroke-miterlimit="1.91999995708466" d="M0 0L0 9.64501" sodipodi:nodetypes="cc"/><path id="shape030" transform="translate(144.929433689485, 89.4599993233508)" fill="none" stroke="#000000" stroke-width="3.6" stroke-linecap="round" stroke-linejoin="miter" stroke-miterlimit="1.91999995708466" d="M0 0L0 20.7843" sodipodi:nodetypes="cc"/><path id="shape1111" transform="translate(145.165361677518, 110.377502766031)" fill="none" stroke="#000000" stroke-width="3.6" stroke-linecap="round" stroke-linejoin="miter" stroke-miterlimit="1.91999995708466" d="M0 0L11.4941 0" sodipodi:nodetypes="cc"/><path id="shape0311" transform="translate(149.302466733836, 75.5402169593096)" fill="none" stroke="#000000" stroke-width="3.6" stroke-linecap="round" stroke-linejoin="miter" stroke-miterlimit="1.91999995708466" d="M0 0L0 30.444" sodipodi:nodetypes="cc"/><path id="shape1121" transform="translate(149.538394721869, 106.117502956216)" fill="none" stroke="#000000" stroke-width="3.6" stroke-linecap="round" stroke-linejoin="miter" stroke-miterlimit="1.91999995708466" d="M0 0L10.3031 0" sodipodi:nodetypes="cc"/><path id="shape032" transform="translate(153.756400666344, 62.2595027798251)" fill="none" stroke="#000000" stroke-width="3.6" stroke-linecap="round" stroke-linejoin="miter" stroke-miterlimit="1.91999995708466" d="M0 0L0 38.5562" sodipodi:nodetypes="cc"/><path id="shape1131" transform="translate(153.976037374228, 101.156843029844)" fill="none" stroke="#000000" stroke-width="3.6" stroke-linecap="round" stroke-linejoin="miter" stroke-miterlimit="1.91999995708466" d="M0 0L21.6693 0" sodipodi:nodetypes="cc"/><path id="shape033" transform="matrix(0.967950101226539 0 0 1 158.442552597736 55.4539454680842)" fill="none" stroke="#000000" stroke-width="3.6" stroke-linecap="round" stroke-linejoin="miter" stroke-miterlimit="1.91999995708466" d="M0 0L0.0254792 36.4234" sodipodi:nodetypes="cc"/><path id="shape114" transform="matrix(0.967950101226539 0 0 1 158.46821925716 55.3743959535192)" fill="none" stroke="#000000" stroke-width="3.6" stroke-linecap="round" stroke-linejoin="miter" stroke-miterlimit="1.91999995708466" d="M0 0L33.1393 0" sodipodi:nodetypes="cc"/><path id="shape29" transform="matrix(0.967950101226539 0 0 1 190.679864017872 55.644863187225)" fill="none" stroke="#000000" stroke-width="3.6" stroke-linecap="round" stroke-linejoin="miter" stroke-miterlimit="1.91999995708466" d="M0 0L0.0527306 33.8076" sodipodi:nodetypes="cc"/><path id="shape37" transform="matrix(0.967950101226539 0 0 1 162.513217754571 89.5012351583208)" fill="none" stroke="#000000" stroke-width="3.6" stroke-linecap="round" stroke-linejoin="miter" stroke-miterlimit="1.91999995708466" d="M29.1525 0L0 0" sodipodi:nodetypes="cc"/><path id="shape44" transform="matrix(0.967950101226539 0 0 1 158.491874833583 89.4908387706647)" fill="none" stroke="#000000" stroke-width="3.6" stroke-linecap="round" stroke-linejoin="miter" stroke-miterlimit="1.91999995708466" d="M3.12999 0C-1.08577 0.0729236 -1.00067 6.03263 3.12999 6.20486" sodipodi:nodetypes="cc"/><path id="shape0181" transform="matrix(0.967950076211419 0 0 0.999999974156602 162.585086765301 95.6762234872676)" fill="none" stroke="#000000" stroke-width="3.6" stroke-linecap="round" stroke-linejoin="miter" stroke-miterlimit="1.91999995708466" d="M28.3624 0L0 0" sodipodi:nodetypes="cc"/><path id="shape210" transform="matrix(0.445668772501358 -0.113410551474365 0.123499070741144 0.485313566918905 78.6093966978264 52.6495411347152)" fill="none" stroke="#000000" stroke-width="6.24" stroke-linecap="round" stroke-linejoin="bevel" d="M18.2335 27.641C12.1685 21.366 -0.796515 18.391 0.0384864 8.816C-0.020503 1.80774 10.7667 -5.77313 18.3235 6.55433" sodipodi:nodetypes="ccc"/><path id="shape38" transform="matrix(-0.445668772501358 0.113410551474365 0.123499070741144 0.485313566918905 94.9092653061825 48.3934878023806)" fill="none" stroke="#000000" stroke-width="6.24" stroke-linecap="round" stroke-linejoin="bevel" d="M18.2335 27.8503C12.1685 21.5753 -0.796515 18.6003 0.0384864 9.02531C-0.020503 1.98011 10.5867 -6.02 18.1435 6.76364" sodipodi:nodetypes="ccc"/><ellipse id="shape012" transform="translate(64.9796971741852, 77.7984233028973)" rx="1.32" ry="1.2" cx="1.32" cy="1.2" fill="#000000" fill-rule="evenodd" stroke="#000000" stroke-width="1.0008" stroke-linecap="square" stroke-linejoin="bevel"/><path id="shape151" transform="matrix(0.209026164489875 0 0 0.226942400973024 11.4820584474724 100.530062858518)" fill="#fbfdff" fill-rule="evenodd" stroke="#fbfdff" stroke-width="3.12" stroke-linecap="square" stroke-linejoin="round" d="M9.26706 0C9.567 7.15118 11.9766 9.48239 18.2401 10.9535C8.72925 13.578 10.6395 17.8792 9.30733 22.2552C8.78039 16.9451 8.08173 13.3343 0 11.0011C4.93498 9.81963 9.37629 9.15478 9.26706 0Z" sodipodi:nodetypes="ccccc"/><path id="shape1511" transform="matrix(0.20902616044316 0 0 0.226942396579453 33.1020053683795 133.673336995444)" fill="#fbfdff" fill-rule="evenodd" stroke="#fbfdff" stroke-width="3.12" stroke-linecap="square" stroke-linejoin="round" d="M9.98859 0C10.3119 7.70796 12.9091 10.2207 19.6603 11.8064C9.4089 14.6352 11.4679 19.2713 10.032 23.988C9.46402 18.2644 8.71096 14.3725 0 11.8576C5.31921 10.5842 10.1063 9.86756 9.98859 0Z" sodipodi:nodetypes="ccccc"/><path id="shape152" transform="matrix(0.20902616044316 0 0 0.226942396579453 219.146788536464 126.393265248376)" fill="#fbfdff" fill-rule="evenodd" stroke="#fbfdff" stroke-width="3.12" stroke-linecap="square" stroke-linejoin="round" d="M14.8145 0C15.294 11.432 19.1461 15.1588 29.1591 17.5106C13.9548 21.7061 17.0086 28.5821 14.8789 35.5777C14.0365 27.0888 12.9196 21.3165 0 17.5865C7.88917 15.6979 14.9891 14.635 14.8145 0Z" sodipodi:nodetypes="ccccc"/><path id="shape153" transform="matrix(0.209026152127979 0 0 0.226942387551554 204.724089316199 174.587967550214)" fill="#fbfdff" fill-rule="evenodd" stroke="#fbfdff" stroke-width="3.12" stroke-linecap="square" stroke-linejoin="round" d="M16.6652 0C17.2046 12.8601 21.5379 17.0524 32.8016 19.698C15.698 24.4176 19.1333 32.1526 16.7376 40.0221C15.79 30.4728 14.5336 23.9794 0 19.7835C8.87469 17.6589 16.8616 16.4633 16.6652 0Z" sodipodi:nodetypes="ccccc"/><path id="shape154" transform="matrix(0.209026155219329 0 0 0.226942390907873 191.030298520782 153.173580547141)" fill="#fbfdff" fill-rule="evenodd" stroke="#fbfdff" stroke-width="3.12" stroke-linecap="square" stroke-linejoin="round" d="M33.1283 0C34.2006 25.5644 42.8147 33.8981 65.2057 39.1573C31.2058 48.5392 38.0347 63.9155 33.2723 79.5591C31.3886 60.5762 28.8909 47.6681 0 39.3271C17.6418 35.1037 33.5188 32.727 33.1283 0Z" sodipodi:nodetypes="ccccc"/><path id="shape155" transform="matrix(0.209026161036676 0 0 0.226942397223841 180.078709659591 212.212194908234)" fill="#fbfdff" fill-rule="evenodd" stroke="#fbfdff" stroke-width="3.12" stroke-linecap="square" stroke-linejoin="round" d="M9.43387 0C9.73921 7.2799 12.1922 9.65307 18.5684 11.1507C8.88638 13.8224 10.831 18.2011 9.47487 22.6558C8.93844 17.2501 8.2272 13.5743 0 11.1991C5.02381 9.99639 9.54507 9.31957 9.43387 0Z" sodipodi:nodetypes="ccccc"/><path id="shape156" transform="matrix(0.209026166835018 0 0 0.226942403519176 160.946439590915 220.401477952451)" fill="#fbfdff" fill-rule="evenodd" stroke="#fbfdff" stroke-width="3.12" stroke-linecap="square" stroke-linejoin="round" d="M10.8735 0C11.2254 8.39081 14.0528 11.1261 21.402 12.8523C10.2424 15.9317 12.4838 20.9785 10.9207 26.1131C10.3024 19.8825 9.48266 15.6458 0 12.9081C5.79044 11.5218 11.0016 10.7417 10.8735 0Z" sodipodi:nodetypes="ccccc"/><path id="shape157" transform="matrix(0.209026159188431 0 0 0.226942395217178 54.0333265808761 210.568855307102)" fill="#fbfdff" fill-rule="evenodd" stroke="#fbfdff" stroke-width="3.12" stroke-linecap="square" stroke-linejoin="round" d="M11.0025 0C11.3586 8.49041 14.2196 11.2582 21.656 13.0049C10.364 16.1208 12.632 21.2275 11.0504 26.4231C10.4247 20.1185 9.59522 15.8315 0 13.0613C5.85917 11.6586 11.1322 10.8692 11.0025 0Z" sodipodi:nodetypes="ccccc"/><path id="shape158" transform="matrix(0.209026155786842 0 0 0.226942391524029 15.8385983589444 168.542026297196)" fill="#fbfdff" fill-rule="evenodd" stroke="#fbfdff" stroke-width="3.12" stroke-linecap="square" stroke-linejoin="round" d="M37.2971 0C38.5043 28.7813 48.2024 38.1637 73.411 44.0847C35.1326 54.6473 42.8209 71.9585 37.4592 89.5707C35.3384 68.1989 32.5265 53.6666 0 44.276C19.8618 39.5211 37.7367 36.8452 37.2971 0Z" sodipodi:nodetypes="ccccc"/><path id="shape159" transform="matrix(0.209026159697172 0 0 0.226942395769524 166.787936589332 205.58837191253)" fill="#fbfdff" fill-rule="evenodd" stroke="#fbfdff" stroke-width="3.12" stroke-linecap="square" stroke-linejoin="round" d="M19.7172 0C20.3553 15.2153 25.4822 20.1753 38.8088 23.3054C18.5729 28.8894 22.6373 38.0409 19.8029 47.3516C18.6817 36.0534 17.1952 28.3709 0 23.4065C10.5 20.8929 19.9496 19.4783 19.7172 0Z" sodipodi:nodetypes="ccccc"/><path id="shape1510" transform="matrix(0.209026159697172 0 0 0.226942395769524 143.395569691112 21.1174011844542)" fill="#fbfdff" fill-rule="evenodd" stroke="#fbfdff" stroke-width="3.12" stroke-linecap="square" stroke-linejoin="round" d="M15.0504 0C15.5376 11.6141 19.451 15.4002 29.6234 17.7894C14.177 22.0517 17.2794 29.0373 15.1159 36.1443C14.2601 27.5202 13.1254 21.656 0 17.8666C8.0148 15.9479 15.2278 14.8681 15.0504 0Z" sodipodi:nodetypes="ccccc"/><path id="shape1511" transform="matrix(0.20902615952366 0 0 0.22694239558114 186.542899058163 47.2222396246298)" fill="#fbfdff" fill-rule="evenodd" stroke="#fbfdff" stroke-width="3.12" stroke-linecap="square" stroke-linejoin="round" d="M25.5967 0C26.4252 19.7524 33.0809 26.1915 50.3814 30.255C24.1112 37.504 29.3877 49.3846 25.708 61.4717C24.2525 46.8044 22.3227 36.831 0 30.3863C13.631 27.123 25.8984 25.2866 25.5967 0Z" sodipodi:nodetypes="ccccc"/><path id="shape1512" transform="matrix(0.20902615952366 0 0 0.22694239558114 17.1356721893874 100.438204657973)" fill="#fbfdff" fill-rule="evenodd" stroke="#fbfdff" stroke-width="3.12" stroke-linecap="square" stroke-linejoin="round" d="M21.2054 0C21.8917 16.3637 27.4056 21.6981 41.738 25.0645C19.9747 31.0698 24.3459 40.9122 21.2975 50.9256C20.0917 38.7747 18.493 30.5122 0 25.1732C11.2925 22.4698 21.4553 20.9484 21.2054 0Z" sodipodi:nodetypes="ccccc"/><path id="shape1513" transform="matrix(0.20902615952366 0 0 0.22694239558114 72.5772900210475 46.9519521246227)" fill="#fbfdff" fill-rule="evenodd" stroke="#fbfdff" stroke-width="3.12" stroke-linecap="square" stroke-linejoin="round" d="M12.564 0C12.9707 9.69537 16.2376 12.856 24.7294 14.8505C11.8349 18.4087 14.4248 24.2402 12.6186 30.173C11.9042 22.9737 10.957 18.0783 0 14.9149C6.69071 13.3132 12.7121 12.4118 12.564 0Z" sodipodi:nodetypes="ccccc"/><path id="shape1514" transform="matrix(0.20902615952366 0 0 0.22694239558114 201.565242722189 26.2208639086195)" fill="#fbfdff" fill-rule="evenodd" stroke="#fbfdff" stroke-width="3.12" stroke-linecap="square" stroke-linejoin="round" d="M15.5777 0C16.0819 12.021 20.1325 15.9397 30.6612 18.4127C14.6737 22.8243 17.8848 30.0546 15.6454 37.4106C14.7596 28.4843 13.5852 22.4147 0 18.4925C8.29559 16.5066 15.7613 15.389 15.5777 0Z" sodipodi:nodetypes="ccccc"/><path id="shape1515" transform="matrix(0.20902615952366 0 0 0.22694239558114 90.5999937952412 219.672159285304)" fill="#fbfdff" fill-rule="evenodd" stroke="#fbfdff" stroke-width="3.12" stroke-linecap="square" stroke-linejoin="round" d="M28.0603 0C28.9686 21.6535 36.2649 28.7123 55.2305 33.167C26.4319 41.1137 32.2161 54.1377 28.1823 67.3881C26.5867 51.3092 24.4712 40.3758 0 33.3109C14.943 29.7335 28.3911 27.7204 28.0603 0Z" sodipodi:nodetypes="ccccc"/><path id="shape1516" transform="matrix(0.20902615952366 0 0 0.22694239558114 37.9379401989145 125.042418767821)" fill="#fbfdff" fill-rule="evenodd" stroke="#fbfdff" stroke-width="3.12" stroke-linecap="square" stroke-linejoin="round" d="M22.7796 0C23.5169 17.5785 29.4401 23.3089 44.8365 26.9252C21.4576 33.3764 26.1533 43.9494 22.8786 54.7062C21.5833 41.6532 19.8659 32.7774 0 27.042C12.1308 24.1379 23.0481 22.5036 22.7796 0Z" sodipodi:nodetypes="ccccc"/><path id="shape1517" transform="matrix(0.209026158930119 0 0 0.226942394936725 188.055872928562 147.120725420441)" fill="#fbfdff" fill-rule="evenodd" stroke="#fbfdff" stroke-width="3.12" stroke-linecap="square" stroke-linejoin="round" d="M14.2288 0C14.6893 10.98 18.3891 14.5594 28.0062 16.8183C13.403 20.8479 16.3361 27.4521 14.2906 34.1711C13.4816 26.0178 12.4088 20.4737 0 16.8912C7.57725 15.0772 14.3965 14.0564 14.2288 0Z" sodipodi:nodetypes="ccccc"/><path id="shape1518" transform="matrix(0.209026158930119 0 0 0.226942394936725 44.9652444147437 196.386308244006)" fill="#fbfdff" fill-rule="evenodd" stroke="#fbfdff" stroke-width="3.12" stroke-linecap="square" stroke-linejoin="round" d="M28.6683 0C29.5962 22.1227 37.0506 29.3345 56.4272 33.8856C27.0046 42.0045 32.9142 55.3107 28.7929 68.8483C27.1628 52.421 25.0014 41.2507 0 34.0326C15.2667 30.3778 29.0063 28.321 28.6683 0Z" sodipodi:nodetypes="ccccc"/><path id="shape1519" transform="matrix(0.209026158930119 0 0 0.226942394936725 132.565251390738 138.995747522813)" fill="#fbfdff" fill-rule="evenodd" stroke="#fbfdff" stroke-width="3.12" stroke-linecap="square" stroke-linejoin="round" d="M22.7796 0C23.5169 17.5785 29.4401 23.3089 44.8365 26.9252C21.4576 33.3764 26.1533 43.9494 22.8786 54.7062C21.5833 41.6532 19.8659 32.7774 0 27.042C12.1308 24.1379 23.0481 22.5036 22.7796 0Z" sodipodi:nodetypes="ccccc"/><path id="shape1520" transform="matrix(0.209026158930119 0 0 0.226942394936725 141.837687024772 147.471509910259)" fill="#fbfdff" fill-rule="evenodd" stroke="#fbfdff" stroke-width="3.12" stroke-linecap="square" stroke-linejoin="round" d="M13.0665 0C13.4894 10.0831 16.8869 13.3701 25.7184 15.4444C12.3081 19.1448 15.0016 25.2095 13.1232 31.3797C12.3803 23.8924 11.3951 18.8012 0 15.5114C6.95827 13.8456 13.2205 12.9081 13.0665 0Z" sodipodi:nodetypes="ccccc"/><path id="shape1521" transform="matrix(0.209026162712833 0 0 0.226942399043667 144.270049279502 137.241667799074)" fill="#fbfdff" fill-rule="evenodd" stroke="#fbfdff" stroke-width="3.12" stroke-linecap="square" stroke-linejoin="round" d="M8.92236 0C9.21113 6.88516 11.5311 9.12967 17.5616 10.5461C8.40449 13.0729 10.2437 17.2141 8.96107 21.4274C8.45379 16.3147 7.78105 12.8383 0 10.5918C4.7514 9.45436 9.02751 8.81419 8.92236 0Z" sodipodi:nodetypes="ccccc"/><path id="shape1522" transform="matrix(0.209026155888335 0 0 0.226942391634221 94.4918377904517 9.6374142110252)" fill="#fbfdff" fill-rule="evenodd" stroke="#fbfdff" stroke-width="3.12" stroke-linecap="square" stroke-linejoin="round" d="M14.7264 0C15.203 11.364 19.0322 15.0686 28.9856 17.4064C13.8717 21.5769 16.9074 28.4121 14.7904 35.3661C13.953 26.9277 12.8428 21.1897 0 17.482C7.84223 15.6045 14.9 14.548 14.7264 0Z" sodipodi:nodetypes="ccccc"/><path id="shape1523" transform="matrix(0.209026152506224 0 0 0.22694238796222 99.1594048855479 15.9819229778921)" fill="#fbfdff" fill-rule="evenodd" stroke="#fbfdff" stroke-width="3.12" stroke-linecap="square" stroke-linejoin="round" d="M7.50628 0C7.74921 5.79241 9.70101 7.6807 14.7744 8.87231C7.07062 10.9981 8.61797 14.4821 7.5389 18.0267C7.11206 13.7255 6.54618 10.8007 0 8.91085C3.99731 7.95386 7.59476 7.41534 7.50628 0Z" sodipodi:nodetypes="ccccc"/><path id="shape1524" transform="matrix(0.209026152127979 0 0 0.226942387551554 212.635916488572 76.5460180643503)" fill="#fbfdff" fill-rule="evenodd" stroke="#fbfdff" stroke-width="3.12" stroke-linecap="square" stroke-linejoin="round" d="M9.01163 0C9.30331 6.95406 11.6465 9.22107 17.7374 10.6517C8.48868 13.2038 10.3463 17.3864 9.05081 21.6418C8.53838 16.4781 7.85897 12.9668 0 10.6978C4.79897 9.549 9.11784 8.90244 9.01163 0Z" sodipodi:nodetypes="ccccc"/><path id="shape1525" transform="matrix(0.209026152127979 0 0 0.226942387551554 214.904649885921 69.7459290443391)" fill="#fbfdff" fill-rule="evenodd" stroke="#fbfdff" stroke-width="3.12" stroke-linecap="square" stroke-linejoin="round" d="M14.8145 0C15.294 11.432 19.1461 15.1588 29.1591 17.5106C13.9548 21.7061 17.0086 28.5821 14.8789 35.5777C14.0365 27.0888 12.9196 21.3165 0 17.5865C7.88917 15.6979 14.9891 14.635 14.8145 0Z" sodipodi:nodetypes="ccccc"/><path id="shape1526" transform="matrix(0.209026148052068 0 0 0.226942383126285 193.417620485803 42.5175101568905)" fill="#fbfdff" fill-rule="evenodd" stroke="#fbfdff" stroke-width="3.12" stroke-linecap="square" stroke-linejoin="round" d="M9.01163 0C9.30331 6.95406 11.6465 9.22107 17.7374 10.6517C8.48868 13.2038 10.3463 17.3864 9.05081 21.6418C8.53838 16.4781 7.85897 12.9668 0 10.6978C4.79897 9.549 9.11784 8.90244 9.01163 0Z" sodipodi:nodetypes="ccccc"/><path id="shape1527" transform="matrix(0.209026140495524 0 0 0.226942374922048 197.126672055452 46.7189112249998)" fill="#fbfdff" fill-rule="evenodd" stroke="#fbfdff" stroke-width="3.12" stroke-linecap="square" stroke-linejoin="round" d="M5.78332 0C5.97051 4.46285 7.47428 5.91773 11.3832 6.83586C5.44771 8.4737 6.63986 11.1579 5.80847 13.8889C5.47961 10.575 5.04359 8.3216 0 6.86544C3.0798 6.12819 5.85148 5.71325 5.78332 0Z" sodipodi:nodetypes="ccccc"/><path id="shape1528" transform="matrix(0.209026148182439 0 0 0.226942383267831 107.436126122797 59.5816707155801)" fill="#fbfdff" fill-rule="evenodd" stroke="#fbfdff" stroke-width="3.12" stroke-linecap="square" stroke-linejoin="round" d="M22.7796 0C23.5169 17.5785 29.4401 23.3089 44.8365 26.9252C21.4576 33.3764 26.1533 43.9494 22.8786 54.7062C21.5833 41.6532 19.8659 32.7774 0 27.042C12.1308 24.1379 23.0481 22.5036 22.7796 0Z" sodipodi:nodetypes="ccccc"/><path id="shape1529" transform="matrix(0.209026142362259 0 0 0.226942376948786 115.604100282879 59.750989056012)" fill="#fbfdff" fill-rule="evenodd" stroke="#fbfdff" stroke-width="3.12" stroke-linecap="square" stroke-linejoin="round" d="M8.6087 0C8.88734 6.64314 11.1258 8.80873 16.9443 10.1754C8.1091 12.6134 9.88367 16.609 8.64612 20.6742C8.15661 15.7413 7.50758 12.387 0 10.2195C4.58438 9.12202 8.71017 8.5044 8.6087 0Z" sodipodi:nodetypes="ccccc"/><path id="shape1530" transform="matrix(0.209026164501476 0 0 0.22694240098562 114.271356872411 85.3215761162186)" fill="#fbfdff" fill-rule="evenodd" stroke="#fbfdff" stroke-width="3.12" stroke-linecap="square" stroke-linejoin="round" d="M8.92236 0C9.21113 6.88516 11.5311 9.12967 17.5616 10.5461C8.40449 13.0729 10.2437 17.2141 8.96107 21.4274C8.45379 16.3147 7.78105 12.8383 0 10.5918C4.7514 9.45436 9.02751 8.81419 8.92236 0Z" sodipodi:nodetypes="ccccc"/><path id="shape1531" transform="matrix(0.20902615925754 0 0 0.22694239529221 49.8425899534849 66.2146680556442)" fill="#fbfdff" fill-rule="evenodd" stroke="#fbfdff" stroke-width="3.12" stroke-linecap="square" stroke-linejoin="round" d="M14.3029 0C14.7658 11.0372 18.4849 14.6352 28.152 16.9058C13.4728 20.9563 16.4211 27.595 14.365 34.3489C13.5517 26.1532 12.4734 20.5802 0 16.9791C7.6167 15.1557 14.4714 14.1295 14.3029 0Z" sodipodi:nodetypes="ccccc"/><path id="shape1532" transform="matrix(0.209026160316234 0 0 0.226942396441648 54.5645963355832 63.867778826834)" fill="#fbfdff" fill-rule="evenodd" stroke="#fbfdff" stroke-width="3.12" stroke-linecap="square" stroke-linejoin="round" d="M7.98321 0C8.24158 6.16045 10.3174 8.16869 15.7131 9.43603C7.51989 11.6968 9.1655 15.4022 8.01788 19.172C7.56393 14.5975 6.96207 11.4869 0 9.47694C4.25129 8.45921 8.07726 7.88643 7.98321 0Z" sodipodi:nodetypes="ccccc"/><path id="shape1533" transform="matrix(0.209026161539298 0 0 0.226942397769544 73.5516237623649 131.941488581503)" fill="#fbfdff" fill-rule="evenodd" stroke="#fbfdff" stroke-width="3.12" stroke-linecap="square" stroke-linejoin="round" d="M9.98859 0C10.3119 7.70796 12.9091 10.2207 19.6603 11.8064C9.4089 14.6352 11.4679 19.2713 10.032 23.988C9.46402 18.2644 8.71096 14.3725 0 11.8576C5.31921 10.5842 10.1063 9.86756 9.98859 0Z" sodipodi:nodetypes="ccccc"/><path id="shape1534" transform="matrix(0.209026151844564 0 0 0.226942387243846 78.0407556633392 131.096209786259)" fill="#fbfdff" fill-rule="evenodd" stroke="#fbfdff" stroke-width="3.12" stroke-linecap="square" stroke-linejoin="round" d="M7.5858 0C7.83134 5.85379 9.80377 7.76208 14.931 8.96633C7.14556 11.1147 8.70926 14.6355 7.61877 18.2176C7.18742 13.8708 6.61551 10.9151 0 9.00522C4.03966 8.03814 7.6752 7.49389 7.5858 0Z" sodipodi:nodetypes="ccccc"/><path id="shape1535" transform="matrix(0.108396844613752 0 0 0.117687851349041 169.5639108052 123.943114709309)" fill="#fbfdff" fill-rule="evenodd" stroke="#fbfdff" stroke-width="3.12" stroke-linecap="square" stroke-linejoin="round" d="M33.1283 0C34.2006 25.5644 42.8147 33.8981 65.2057 39.1573C31.2058 48.5392 38.0347 63.9155 33.2723 79.5591C31.3886 60.5762 28.8909 47.6681 0 39.3271C17.6418 35.1037 33.5188 32.727 33.1283 0Z" sodipodi:nodetypes="ccccc"/>
</svg>
