<?xml version="1.0" standalone="no"?>
<!DOCTYPE svg PUBLIC "-//W3C//DTD SVG 20010904//EN" "http://www.w3.org/TR/2001/REC-SVG-20010904/DTD/svg10.dtd">
<!-- Created using Krita: https://krita.org -->
<svg xmlns="http://www.w3.org/2000/svg" 
    xmlns:xlink="http://www.w3.org/1999/xlink"
    xmlns:krita="http://krita.org/namespaces/svg/krita"
    xmlns:sodipodi="http://sodipodi.sourceforge.net/DTD/sodipodi-0.dtd"
    width="240pt"
    height="240pt"
    viewBox="0 0 240 240">
<defs/>
<path id="shape0" transform="translate(37.1100014255344, 108.877143860506)" fill="none" stroke="#000000" stroke-width="3.84" stroke-linecap="square" stroke-linejoin="miter" stroke-miterlimit="2" d="M82.89 21.2929C83.328 4.49645 30.5066 -5.43001 0 3.14285" sodipodi:nodetypes="cc"/><path id="shape01" transform="matrix(-1 0 0 1 202.889998574466 108.877143860506)" fill="none" stroke="#000000" stroke-width="3.84" stroke-linecap="square" stroke-linejoin="miter" stroke-miterlimit="2" d="M82.89 21.2929C83.328 4.49645 30.5066 -5.43001 0 3.14285" sodipodi:nodetypes="cc"/><path id="shape02" transform="matrix(-1 0 0 1 217.740003681483 115.665001955629)" fill="none" stroke="#000000" stroke-width="3.84" stroke-linecap="round" stroke-linejoin="miter" stroke-miterlimit="1.91999995708466" d="M24.4877 90.0394L0 0" sodipodi:nodetypes="cc"/><path id="shape03" transform="matrix(-1 0 0 1 216.986370775941 111.390001883349)" fill="none" stroke="#000000" stroke-width="3.84" stroke-linecap="round" stroke-linejoin="miter" stroke-miterlimit="1.91999995708466" d="M0 3.60677L4.30887 0" sodipodi:nodetypes="cc"/><path id="shape04" transform="matrix(-0.96933759004357 0 0 1 192.584321428265 205.874140165528)" fill="none" stroke="#000000" stroke-width="3.84" stroke-linecap="round" stroke-linejoin="miter" stroke-miterlimit="1.91999995708466" d="M0 0C23.3852 4.35174 44.6774 11.6746 66.9332 21.6799" sodipodi:nodetypes="cc"/><path id="shape05" transform="matrix(-1 0 0 1 211.852511374694 111.480005985537)" fill="none" stroke="#000000" stroke-width="3.84" stroke-linecap="round" stroke-linejoin="miter" stroke-miterlimit="1.91999995708466" d="M91.8525 21.96C61.4539 12.2736 28.3987 4.40643 0 0" sodipodi:nodetypes="cc"/><path id="shape06" transform="translate(22.2712562740798, 115.665001955629)" fill="none" stroke="#000000" stroke-width="3.84" stroke-linecap="round" stroke-linejoin="miter" stroke-miterlimit="1.91999995708466" d="M24.4877 90.0394L0 0" sodipodi:nodetypes="cc"/><path id="shape07" transform="translate(23.024889179622, 111.390001883349)" fill="none" stroke="#000000" stroke-width="3.84" stroke-linecap="round" stroke-linejoin="miter" stroke-miterlimit="1.91999995708466" d="M0 3.60677L4.30887 0" sodipodi:nodetypes="cc"/><path id="shape08" transform="matrix(0.96933759004357 0 0 1 47.426938527298 205.874140165528)" fill="none" stroke="#000000" stroke-width="3.84" stroke-linecap="round" stroke-linejoin="miter" stroke-miterlimit="1.91999995708466" d="M0 0C23.3852 4.35174 44.6774 11.6746 66.9332 21.6799" sodipodi:nodetypes="cc"/><path id="shape09" transform="translate(28.1587485808685, 111.480005985537)" fill="none" stroke="#000000" stroke-width="3.84" stroke-linecap="round" stroke-linejoin="miter" stroke-miterlimit="1.91999995708466" d="M91.8525 21.96C61.4539 12.2736 28.3987 4.40643 0 0" sodipodi:nodetypes="cc"/><path id="shape010" transform="translate(120, 145.352865019503)" fill="none" stroke="#000000" stroke-width="3.84" stroke-linecap="round" stroke-linejoin="round" d="M0 74.8826L0 0" sodipodi:nodetypes="cc"/><path id="shape011" transform="translate(112.26027608776, 227.47979414722)" fill="none" stroke="#000000" stroke-width="3.84" stroke-linecap="round" stroke-linejoin="miter" stroke-miterlimit="1.91999995708466" d="M0 0C5.16307 1.66469 10.3249 1.65871 15.4856 0" sodipodi:nodetypes="cc"/><path id="shape011" transform="translate(28.1587485808685, 118.200005985537)" fill="none" stroke="#000000" stroke-width="3.84" stroke-linecap="round" stroke-linejoin="miter" stroke-miterlimit="1.91999995708466" d="M82.2242 19.7495C51.8256 10.0631 28.3987 4.40643 0 0" sodipodi:nodetypes="cc"/><path id="shape012" transform="matrix(-1 0 0 1 211.841251419131 118.200005985537)" fill="none" stroke="#000000" stroke-width="3.84" stroke-linecap="round" stroke-linejoin="miter" stroke-miterlimit="1.91999995708466" d="M82.2242 19.7495C51.8256 10.0631 28.3987 4.40643 0 0" sodipodi:nodetypes="cc"/><path id="shape013" transform="matrix(0.437166567747857 -0.0731432515048585 0.0796497633985817 0.476055042269674 80.6001756912738 55.4646559162251)" fill="none" stroke="#000000" stroke-width="7.68" stroke-linecap="round" stroke-linejoin="bevel" d="M18.2335 27.641C12.1685 21.366 -0.796515 18.391 0.0384864 8.816C-0.020503 1.80774 10.7667 -5.77313 18.3235 6.55433" sodipodi:nodetypes="ccc"/><path id="shape1" transform="matrix(-0.437166567747857 0.0731432515048585 0.0796497633985817 0.476055042269674 96.597773953324 52.6856235206468)" fill="none" stroke="#000000" stroke-width="7.68" stroke-linecap="round" stroke-linejoin="bevel" d="M18.2335 27.8503C12.1685 21.5753 -0.796515 18.6003 0.0384864 9.02531C-0.020503 1.98011 10.5867 -6.02 18.1435 6.76364" sodipodi:nodetypes="ccc"/><path id="shape2" transform="matrix(0.619726578426194 0.0611012562787098 -0.0665365636039857 0.674854813368259 148.870052853451 16.4311860145885)" fill="none" stroke="#000000" stroke-width="5.28" stroke-linecap="round" stroke-linejoin="bevel" d="M18.2335 27.641C12.1685 21.366 -0.796515 18.391 0.0384864 8.816C-0.020503 1.80774 10.7667 -5.77313 18.3235 6.55433" sodipodi:nodetypes="ccc"/><path id="shape3" transform="matrix(-0.619726578426194 -0.0611012562787098 -0.0665365636039857 0.674854813368259 171.585784102054 18.5281797576419)" fill="none" stroke="#000000" stroke-width="5.28" stroke-linecap="round" stroke-linejoin="bevel" d="M18.2335 27.8503C12.1685 21.5753 -0.796515 18.6003 0.0384864 9.02531C-0.020503 1.98011 10.5867 -6.02 18.1435 6.76364" sodipodi:nodetypes="ccc"/><rect id="shape014" transform="translate(52.2600000192174, 71.76)" fill="none" stroke="#000000" stroke-width="3.84" stroke-linecap="round" stroke-linejoin="bevel" width="36" height="24.48" rx="0.794998595229401" ry="0.794998595229401"/><path id="shape015" transform="translate(66.3049901311167, 79.1892658049249)" fill="#000000" fill-rule="evenodd" stroke="#000000" stroke-width="3.84" stroke-linecap="butt" stroke-linejoin="round" d="M0 0C0.0212132 2.07889 0.0565685 5.54372 0.106066 10.3945L9.22774 5.3033L0 0" sodipodi:nodetypes="cccc"/><path id="shape016" transform="matrix(0.99999999889588 -4.69919044575852e-05 4.69919044575852e-05 0.99999999889588 56.4675005979782 101.37087280771)" fill="none" stroke="#000000" stroke-width="3.84" stroke-linecap="round" stroke-linejoin="miter" stroke-miterlimit="1.91999995708466" d="M0 0L37.0163 0.0525037" sodipodi:nodetypes="cc"/><path id="shape11" transform="translate(93.5925029428853, 76.4371973745296)" fill="none" stroke="#000000" stroke-width="3.84" stroke-linecap="round" stroke-linejoin="miter" stroke-miterlimit="1.91999995708466" d="M0 24.7078L0 0" sodipodi:nodetypes="cc"/><path id="shape017" transform="matrix(0.935983438092229 -4.39836443452753e-05 4.69919044575852e-05 0.99999999889588 66.8700026476297 106.309229950817)" fill="none" stroke="#000000" stroke-width="3.84" stroke-linecap="round" stroke-linejoin="miter" stroke-miterlimit="1.91999995708466" d="M0 0L33.941 0.0619755" sodipodi:nodetypes="cc"/><path id="shape12" transform="matrix(1 0 0 0.880429482970994 98.5800002140354 84.8918060870955)" fill="none" stroke="#000000" stroke-width="3.84" stroke-linecap="round" stroke-linejoin="miter" stroke-miterlimit="1.91999995708466" d="M0 24.4683L0.00266778 0" sodipodi:nodetypes="cc"/><path id="shape018" transform="matrix(0.935983438092229 -4.39836443452753e-05 4.69919044575852e-05 0.99999999889588 88.710032285021 111.109041041836)" fill="none" stroke="#000000" stroke-width="3.84" stroke-linecap="round" stroke-linejoin="miter" stroke-miterlimit="1.91999995708466" d="M0 0L15.7355 0.0613636" sodipodi:nodetypes="cc"/><path id="shape13" transform="matrix(1 0 0 0.880429482970994 103.380000214035 94.5600035730488)" fill="none" stroke="#000000" stroke-width="3.84" stroke-linecap="round" stroke-linejoin="miter" stroke-miterlimit="1.91999995708466" d="M0 18.9389L0.00723385 0" sodipodi:nodetypes="cc"/><ellipse id="shape019" transform="translate(100.571249997928, 11.52)" rx="19.44" ry="19.32" cx="19.44" cy="19.32" fill="none" stroke="#000000" stroke-width="3.84" stroke-linecap="square" stroke-linejoin="bevel"/><path id="shape020" transform="translate(134.265008867448, 26.9100016445084)" fill="none" stroke="#000000" stroke-width="3.6" stroke-linecap="round" stroke-linejoin="miter" stroke-miterlimit="1.91999995708466" d="M9.675 0C11.4681 10.7688 6.53116 17.5095 0 23.325" sodipodi:nodetypes="cc"/><path id="shape021" transform="matrix(0.999910374343848 0.0133881768566768 -0.0133881768566768 0.999910374343848 121.457801021096 48.2419455828243)" fill="none" stroke="#000000" stroke-width="3.84" stroke-linecap="square" stroke-linejoin="miter" stroke-miterlimit="2" d="M9.91197 0C29.4831 16.557 21.6683 31.7642 10.4137 44.6638C-4.02016 59.0141 0.135724 71.9776 2.08563 73.5667" sodipodi:nodetypes="ccc"/><path id="shape0111" transform="matrix(0.999910374343848 0.0133881768566768 -0.0133881768566768 0.999910374343848 101.59859270473 36.9017585061135)" fill="none" stroke="#000000" stroke-width="3.84" stroke-linecap="round" stroke-linejoin="miter" stroke-miterlimit="1.91999995708466" d="M0 0C5.12693 15.483 26.5789 18.1709 28.0309 36.2679C28.1773 46.5338 21.6238 51.4378 17.88 55.714C7.53947 67.8672 16.4868 86.2578 18.3926 87.8458" sodipodi:nodetypes="cccc"/><path id="shape022" transform="matrix(0.989199100234883 0.146578102370377 -0.146578102370377 0.989199100234883 123.273138296802 51.7590128621155)" fill="none" stroke="#000000" stroke-width="3.36" stroke-linecap="square" stroke-linejoin="miter" stroke-miterlimit="2" d="M0 4.2C3.88211 2.54932 7.78721 0.828463 11.4 0" sodipodi:nodetypes="cc"/><path id="shape14" transform="translate(115.771059625472, 117.1731053611)" fill="none" stroke="#000000" stroke-width="3.36" stroke-linecap="square" stroke-linejoin="miter" stroke-miterlimit="2" d="M0 0.295011C1.40965 -0.0706744 2.81929 -0.0626972 4.22894 0.135912" sodipodi:nodetypes="cc"/><path id="shape21" transform="translate(114.840007756829, 105.135007101308)" fill="none" stroke="#000000" stroke-width="3.36" stroke-linecap="square" stroke-linejoin="miter" stroke-miterlimit="2" d="M0 0C2.1997 0.151218 4.22225 1.011 6.225 1.95" sodipodi:nodetypes="cc"/><path id="shape31" transform="translate(120, 93.6350799989217)" fill="none" stroke="#000000" stroke-width="3.36" stroke-linecap="square" stroke-linejoin="miter" stroke-miterlimit="2" d="M0 0C2.59864 0.337556 4.74653 1.42637 6.74889 2.75772" sodipodi:nodetypes="cc"/><path id="shape4" transform="matrix(0.99663537948063 -0.0819629206867423 0.0819629206867423 0.99663537948063 127.530008085457 82.6800052419474)" fill="none" stroke="#000000" stroke-width="3.36" stroke-linecap="square" stroke-linejoin="miter" stroke-miterlimit="2" d="M0 0C3.26372 0.684021 6.44005 1.5433 9.22774 3.18198" sodipodi:nodetypes="cc"/><path id="shape5" transform="matrix(0.998232483908038 0.0594298584113358 -0.0594298584113358 0.998232483908038 128.755051023333 67.3089815274507)" fill="none" stroke="#000000" stroke-width="3.36" stroke-linecap="square" stroke-linejoin="miter" stroke-miterlimit="2" d="M0 2.70757C4.62864 1.02879 9.28977 -0.104039 14.025 0.00757178" sodipodi:nodetypes="cc"/><circle id="shape023" transform="translate(116.4, 39.1124999696536)" r="3.6" cx="3.6" cy="3.6" fill="#000000" fill-rule="evenodd" stroke="#000000" stroke-width="3.6" stroke-linecap="square" stroke-linejoin="bevel"/><circle id="shape15" transform="translate(106.350244543868, 33.3451601080807)" r="3.6" cx="3.6" cy="3.6" fill="#000000" fill-rule="evenodd" stroke="#000000" stroke-width="3.6" stroke-linecap="square" stroke-linejoin="bevel"/><circle id="shape22" transform="translate(126.58233770296, 33.4711135015256)" r="3.6" cx="3.6" cy="3.6" fill="#000000" fill-rule="evenodd" stroke="#000000" stroke-width="3.6" stroke-linecap="square" stroke-linejoin="bevel"/><circle id="shape32" transform="matrix(1 0 0 -1 116.4 22.7268746750063)" r="3.6" cx="3.6" cy="3.6" fill="#000000" fill-rule="evenodd" stroke="#000000" stroke-width="3.6" stroke-linecap="square" stroke-linejoin="bevel"/><circle id="shape41" transform="matrix(1 0 0 -1 106.359619543829 28.4311402677289)" r="3.6" cx="3.6" cy="3.6" fill="#000000" fill-rule="evenodd" stroke="#000000" stroke-width="3.6" stroke-linecap="square" stroke-linejoin="bevel"/><circle id="shape51" transform="matrix(1 0 0 -1 126.572962702802 28.385873765133)" r="3.6" cx="3.6" cy="3.6" fill="#000000" fill-rule="evenodd" stroke="#000000" stroke-width="3.6" stroke-linecap="square" stroke-linejoin="bevel"/><path id="shape6" transform="translate(119.28, 30)" sodipodi:type="arc" sodipodi:rx="0.719999999999999" sodipodi:ry="0.84" sodipodi:cx="0.719999999999999" sodipodi:cy="0.84" sodipodi:start="6.28318530717959" sodipodi:end="6.28318530717958" sodipodi:open="true" d="M1.44 0.84C1.44 0.376081 1.11765 -1.72278e-15 0.72 0C0.322355 1.72278e-15 -3.04484e-16 0.376081 0 0.84C3.04484e-16 1.30392 0.322355 1.68 0.72 1.68C1.11765 1.68 1.44 1.30392 1.44 0.84Z" fill="#272727" fill-rule="evenodd" stroke="#000000" stroke-width="3.6" stroke-linecap="square" stroke-linejoin="bevel"/><path id="shape7" transform="translate(119.546258094953, 30.5025020654459)" fill="none" stroke="#000000" stroke-width="2.88" stroke-linecap="square" stroke-linejoin="miter" stroke-miterlimit="2" d="M0 0L0.453742 0.375" sodipodi:nodetypes="cc"/><path id="shape024" transform="translate(140.983900683895, 103.965000860092)" fill="none" stroke="#000000" stroke-width="3.6" stroke-linecap="round" stroke-linejoin="miter" stroke-miterlimit="1.91999995708466" d="M0 0L0 9.64501" sodipodi:nodetypes="cc"/><path id="shape025" transform="translate(144.929433689485, 89.4599993233508)" fill="none" stroke="#000000" stroke-width="3.6" stroke-linecap="round" stroke-linejoin="miter" stroke-miterlimit="1.91999995708466" d="M0 0L0 20.7843" sodipodi:nodetypes="cc"/><path id="shape16" transform="translate(145.165361677518, 110.377502766031)" fill="none" stroke="#000000" stroke-width="3.6" stroke-linecap="round" stroke-linejoin="miter" stroke-miterlimit="1.91999995708466" d="M0 0L11.4941 0" sodipodi:nodetypes="cc"/><path id="shape026" transform="translate(149.302466733836, 75.5402169593096)" fill="none" stroke="#000000" stroke-width="3.6" stroke-linecap="round" stroke-linejoin="miter" stroke-miterlimit="1.91999995708466" d="M0 0L0 30.444" sodipodi:nodetypes="cc"/><path id="shape17" transform="translate(149.538394721869, 106.117502956216)" fill="none" stroke="#000000" stroke-width="3.6" stroke-linecap="round" stroke-linejoin="miter" stroke-miterlimit="1.91999995708466" d="M0 0L10.3031 0" sodipodi:nodetypes="cc"/><path id="shape027" transform="translate(153.756400666344, 62.2595027798251)" fill="none" stroke="#000000" stroke-width="3.6" stroke-linecap="round" stroke-linejoin="miter" stroke-miterlimit="1.91999995708466" d="M0 0L0 38.5562" sodipodi:nodetypes="cc"/><path id="shape18" transform="translate(153.976037374228, 101.156843029844)" fill="none" stroke="#000000" stroke-width="3.6" stroke-linecap="round" stroke-linejoin="miter" stroke-miterlimit="1.91999995708466" d="M0 0L21.6693 0" sodipodi:nodetypes="cc"/><path id="shape028" transform="matrix(0.967950101226539 0 0 1 158.442552597736 55.4539454680842)" fill="none" stroke="#000000" stroke-width="3.6" stroke-linecap="round" stroke-linejoin="miter" stroke-miterlimit="1.91999995708466" d="M0 0L0.0254792 36.4234" sodipodi:nodetypes="cc"/><path id="shape19" transform="matrix(0.967950101226539 0 0 1 158.46821925716 55.3743959535192)" fill="none" stroke="#000000" stroke-width="3.6" stroke-linecap="round" stroke-linejoin="miter" stroke-miterlimit="1.91999995708466" d="M0 0L33.1393 0" sodipodi:nodetypes="cc"/><path id="shape23" transform="matrix(0.967950101226539 0 0 1 190.679864017872 55.644863187225)" fill="none" stroke="#000000" stroke-width="3.6" stroke-linecap="round" stroke-linejoin="miter" stroke-miterlimit="1.91999995708466" d="M0 0L0.0527306 33.8076" sodipodi:nodetypes="cc"/><path id="shape33" transform="matrix(0.967950101226539 0 0 1 162.513217754571 89.5012351583208)" fill="none" stroke="#000000" stroke-width="3.6" stroke-linecap="round" stroke-linejoin="miter" stroke-miterlimit="1.91999995708466" d="M29.1525 0L0 0" sodipodi:nodetypes="cc"/><path id="shape42" transform="matrix(0.967950101226539 0 0 1 158.491866978169 89.4908387706647)" fill="none" stroke="#000000" stroke-width="3.6" stroke-linecap="round" stroke-linejoin="miter" stroke-miterlimit="1.91999995708466" d="M3.12999 0C-1.08577 0.0729236 -1.00067 6.03263 3.12999 6.20486" sodipodi:nodetypes="cc"/><path id="shape029" transform="matrix(0.967950076211419 0 0 0.999999974156602 162.585086765301 95.6762234872676)" fill="none" stroke="#000000" stroke-width="3.6" stroke-linecap="round" stroke-linejoin="miter" stroke-miterlimit="1.91999995708466" d="M28.3624 0L0 0" sodipodi:nodetypes="cc"/><ellipse id="shape0" transform="matrix(1.41440027648108 0 0 1.41440027648108 64.7423998211811 77.544864257583)" rx="1.08" ry="1.08" cx="1.08" cy="1.08" fill="#000000" fill-rule="evenodd" stroke="#000000" stroke-width="0.5904" stroke-linecap="square" stroke-linejoin="bevel"/><rect id="shape1" transform="matrix(1 0 0 1.01815022458334 160.207500114487 87.980362710323)" fill="none" stroke="#000000" stroke-width="0.5904" stroke-linecap="square" stroke-linejoin="bevel" width="4.56" height="2.88000000000001"/><rect id="shape2" transform="matrix(1 0 0 0.993317523489438 160.207499971546 94.042612959477)" fill="none" stroke="#000000" stroke-width="0.5904" stroke-linecap="square" stroke-linejoin="bevel" width="4.56" height="2.88000000000001"/>
</svg>
